<?xml version="1.0" encoding="utf-8"?>
<!-- Generator: Adobe Illustrator 19.2.1, SVG Export Plug-In . SVG Version: 6.00 Build 0)  -->
<svg version="1.1" id="Objects" xmlns="http://www.w3.org/2000/svg" xmlns:xlink="http://www.w3.org/1999/xlink" x="0px" y="0px"
	 viewBox="0 0 120 100" style="enable-background:new 0 0 120 100;" xml:space="preserve">
<style type="text/css">
	.st0{fill:url(#SVGID_1_);}
	.st1{fill:url(#SVGID_2_);}
	.st2{fill:url(#SVGID_3_);}
	.st3{fill:url(#SVGID_4_);}
	.st4{fill:url(#SVGID_5_);}
	.st5{fill:url(#SVGID_6_);}
</style>
<title>google</title>
<g id="MARK">
	
		<radialGradient id="SVGID_1_" cx="-215.7813" cy="882.5566" r="81.93" gradientTransform="matrix(0.9467 0 0 -0.8778 290.0847 778.7902)" gradientUnits="userSpaceOnUse">
		<stop  offset="0" style="stop-color:#60A664"/>
		<stop  offset="1" style="stop-color:#518F50"/>
	</radialGradient>
	<path class="st0" d="M101,67.5c1.1,2,1.2,4.3,0.2,6.3l13.5-20.7c1.2-2.1,1.2-4.6,0-6.8L92.9,12.7c-1.4-2-3.8-3.2-6.5-3.4H67.4
		c-2.3,0-3.3,1.5-2.1,3.4l13.6,20.9c0.1,0.1,0.2,0.2,0.3,0.3L101,67.5z"/>
	
		<radialGradient id="SVGID_2_" cx="-213.0313" cy="831.2065" r="60.77" gradientTransform="matrix(0.9467 0 0 -0.8778 290.0847 778.7902)" gradientUnits="userSpaceOnUse">
		<stop  offset="0" style="stop-color:#F1CB58"/>
		<stop  offset="1" style="stop-color:#E7C147"/>
	</radialGradient>
	<path class="st1" d="M67.4,90h19.1c2.6-0.2,5.1-1.4,6.5-3.4l8.3-12.8c1-2,0.9-4.4-0.2-6.3L87.2,46.3c1.2,2.1,1.2,4.6,0,6.8
		L73.6,73.8c-0.1,0.1-0.1,0.3-0.2,0.4L65.1,87C64.3,88.7,65.2,90,67.4,90z"/>
	
		<linearGradient id="SVGID_3_" gradientUnits="userSpaceOnUse" x1="108.3325" y1="100.5882" x2="83.7189" y2="100.5882" gradientTransform="matrix(1 0 0 -1 -1.98 160.67)">
		<stop  offset="0" style="stop-color:#272425;stop-opacity:0.2"/>
		<stop  offset="1" style="stop-color:#F0F1F1;stop-opacity:0.25"/>
	</linearGradient>
	<path class="st2" d="M101,67.5L87.2,46.3c1.2,2.1,1.2,4.6,0,6.8l-4.9,7.5l18.9,13.3C102.2,71.8,102.2,69.5,101,67.5z"/>
	
		<radialGradient id="SVGID_4_" cx="-1190.9087" cy="2327.2134" r="81.93" gradientTransform="matrix(-0.9467 0 0 0.8778 -1095.149 -1947.592)" gradientUnits="userSpaceOnUse">
		<stop  offset="0" style="stop-color:#5D85F8"/>
		<stop  offset="1" style="stop-color:#5D81E5"/>
	</radialGradient>
	<path class="st3" d="M19,31.9c-1.1-2-1.2-4.3-0.2-6.3L5.2,46.3C4,48.4,4,50.9,5.2,53l21.9,33.6c1.4,2,3.8,3.2,6.5,3.4h19.1
		c2.3,0,3.3-1.5,2.1-3.4L41.1,65.8c-0.1-0.1-0.2-0.2-0.3-0.3L19,31.9z"/>
	
		<radialGradient id="SVGID_5_" cx="-1188.1587" cy="2275.8633" r="60.77" gradientTransform="matrix(-0.9467 0 0 0.8778 -1095.149 -1947.592)" gradientUnits="userSpaceOnUse">
		<stop  offset="0" style="stop-color:#C24B42"/>
		<stop  offset="1" style="stop-color:#B03A31"/>
	</radialGradient>
	<path class="st4" d="M52.6,9.4H33.6c-2.6,0.2-5,1.4-6.5,3.4l-8.3,12.8c-1,2-0.9,4.3,0.2,6.3l13.9,21.2c-1.2-2.1-1.2-4.6,0-6.8
		l13.5-20.8c0.1-0.1,0.1-0.3,0.2-0.4l8.3-12.8C55.7,10.7,54.8,9.4,52.6,9.4z"/>
	
		<linearGradient id="SVGID_6_" gradientUnits="userSpaceOnUse" x1="-1475.8575" y1="2985.8093" x2="-1500.4711" y2="2985.8093" gradientTransform="matrix(-1 0 0 1 -1462.21 -2946.51)">
		<stop  offset="0" style="stop-color:#272425;stop-opacity:0.2"/>
		<stop  offset="1" style="stop-color:#F0F1F1;stop-opacity:0.25"/>
	</linearGradient>
	<path class="st5" d="M19,31.9l13.9,21.2c-1.2-2.1-1.2-4.6,0-6.8l4.9-7.5L18.8,25.5C17.8,27.6,17.9,29.9,19,31.9z"/>
</g>
</svg>
