<?xml version="1.0" encoding="utf-8"?>
<!-- Generator: Adobe Illustrator 19.2.1, SVG Export Plug-In . SVG Version: 6.00 Build 0)  -->
<svg version="1.1" id="Objects" xmlns="http://www.w3.org/2000/svg" xmlns:xlink="http://www.w3.org/1999/xlink" x="0px" y="0px"
	 viewBox="0 0 120 100" style="enable-background:new 0 0 120 100;" xml:space="preserve">
<style type="text/css">
	.st0{fill:#C6502D;}
	.st1{fill:#D36632;}
	.st2{fill:#E9E9E9;}
	.st3{fill:#030303;}
	.st4{fill:#FFFFFF;}
	.st5{fill:#1A1A1A;}
	.st6{fill:#4371B1;}
	.st7{fill:#67A6D8;}
</style>
<title>htmlcss</title>
<polygon class="st0" points="6,80.9 0.7,27.6 58.7,27.6 53.4,80.9 29.7,86.8 "/>
<polygon class="st1" points="29.7,82.3 48.9,77.5 53.4,32 29.7,32 "/>
<polygon class="st2" points="29.7,51.8 20.1,51.8 19.4,45.1 29.7,45.1 29.7,38.5 29.7,38.5 11.5,38.5 11.6,40.3 13.4,58.3 
	29.7,58.3 "/>
<polygon class="st2" points="29.7,68.7 29.7,68.7 21.6,66.8 21.1,61.6 17.1,61.6 13.8,61.6 14.8,71.8 29.7,75.5 29.7,75.5 "/>
<path class="st3" d="M6.1,13.1h3.7v3.3h3.4v-3.3h3.7v9.9h-3.7v-3.3H9.8v3.3H6.1V13.1L6.1,13.1z"/>
<path class="st3" d="M21.7,16.4h-3.2v-3.3h10.2v3.3h-3.3v6.6h-3.7L21.7,16.4L21.7,16.4L21.7,16.4z"/>
<path class="st3" d="M30.3,13.1h3.8l2.4,3.5l2.4-3.5h3.8v9.9H39v-4.9l-2.5,3.5h-0.1l-2.5-3.5v4.9h-3.6V13.1L30.3,13.1z"/>
<path class="st3" d="M44.5,13.1h3.7v6.7h5.2v3.3h-8.9L44.5,13.1L44.5,13.1L44.5,13.1z"/>
<polygon class="st4" points="29.7,51.8 29.7,58.3 38.6,58.3 37.8,66.8 29.7,68.7 29.7,75.5 44.6,71.8 44.7,70.7 46.4,53.5 
	46.6,51.8 44.6,51.8 "/>
<polygon class="st4" points="29.7,38.5 29.7,42.6 29.7,45 29.7,45.1 47.2,45.1 47.2,45.1 47.2,45.1 47.4,43.6 47.7,40.3 47.9,38.5 
	"/>
<path class="st5" d="M106.8,15.9H102l5,4.9v2.3H96.7v-2.7h5l-5-4.9v-2.4h10.1L106.8,15.9L106.8,15.9L106.8,15.9z M94.6,15.9h-4.8
	l5,4.9v2.3H84.5v-2.7h5l-5-4.9v-2.4h10.2V15.9L94.6,15.9z M82.6,16h-5.2v4.3h5.2v2.8h-8.9v-10h8.9V16z"/>
<polygon class="st6" points="66.6,80.9 61.3,27.6 119.3,27.6 114.1,80.9 90.3,86.8 "/>
<polygon class="st7" points="90.3,82.3 109.5,77.5 114.1,32 90.3,32 "/>
<polygon class="st4" points="90.3,51.3 99.9,51.3 100.6,44.6 90.3,44.6 90.3,38.1 90.3,38.1 108.5,38.1 108.4,39.8 106.6,57.8 
	90.3,57.8 "/>
<polygon class="st2" points="90.4,68.3 90.3,68.3 82.2,66.3 81.7,61.1 77.8,61.1 74.4,61.1 75.4,71.4 90.3,75.1 90.4,75.1 "/>
<polygon class="st4" points="99.3,57.6 98.4,66.3 90.3,68.3 90.3,75.1 105.2,71.4 105.3,70.3 106.6,57.6 "/>
<polygon class="st2" points="90.3,38.1 90.3,42.1 90.3,44.6 90.3,44.6 72.8,44.6 72.8,44.6 72.8,44.6 72.7,43.1 72.3,39.8 
	72.1,38.1 "/>
<polygon class="st2" points="90.3,51.3 90.3,55.4 90.3,57.8 90.3,57.8 82.4,57.8 82.4,57.8 82.3,57.8 82.2,56.4 81.8,53.1 
	81.7,51.3 "/>
</svg>
