<svg id="Слой_1" data-name="Слой 1" xmlns="http://www.w3.org/2000/svg" viewBox="0 0 100 40.58"><title>qiwi</title><path d="M20,0.12a16.23,16.23,0,0,1,6.79,2.45,16.52,16.52,0,0,1,6.86,9.3,18.2,18.2,0,0,1,0,9.89,18.9,18.9,0,0,1-3.12,6.36A6.75,6.75,0,0,0,29,24.84a6.11,6.11,0,0,0-3.26-2,5.53,5.53,0,0,0-1.19-.07,4.63,4.63,0,0,1,4.28.82,14.43,14.43,0,0,0,.29-6.68A17,17,0,0,0,22,6a13.12,13.12,0,0,0-6.47-2.3,9.26,9.26,0,0,0-6,1.63,11.45,11.45,0,0,0-4.29,6.33A16.08,16.08,0,0,0,6.75,23.45a13.11,13.11,0,0,0,4,4.51,15.11,15.11,0,0,0,8,2.83,6.49,6.49,0,0,1-.29-2.89,2.88,2.88,0,0,0,.18.39,8.26,8.26,0,0,0,1.69,2.05,9.62,9.62,0,0,0,3.85,1.9,43.58,43.58,0,0,1,4.79.92,12,12,0,0,1,2.08.85,16.45,16.45,0,0,1,2.47,1.74,10.78,10.78,0,0,1,3,4,1.85,1.85,0,0,1,.19.88H36.47a7.18,7.18,0,0,0-1.54-2.14,13.52,13.52,0,0,0-6.1-3.73,14.25,14.25,0,0,0-5.24-.51,9.14,9.14,0,0,0-2,.4,13.78,13.78,0,0,1-3.79.61A19.58,19.58,0,0,1,7.37,32.52a14.43,14.43,0,0,1-5-4.9A17.33,17.33,0,0,1-.09,20a18.23,18.23,0,0,1,0-2.6A18.93,18.93,0,0,1,8.22,3,17.72,17.72,0,0,1,15.93.12,17.11,17.11,0,0,1,20,.12h0Zm8.83,27.09a0.48,0.48,0,0,1,.55.25,2.22,2.22,0,0,1,.39,1.35,0.42,0.42,0,0,1-.21.38,0.5,0.5,0,0,1-.36-0.29,4.32,4.32,0,0,1-.46-1.12,0.55,0.55,0,0,1,.09-0.56h0Zm-3.31,1.27A1.24,1.24,0,0,1,27,29.76a0.87,0.87,0,0,1-.7.95A1.29,1.29,0,0,1,25,29.39,0.92,0.92,0,0,1,25.52,28.48Z" style="fill:#f4961f"/><path d="M42,2.24a5,5,0,0,1,3.92-.59A4.62,4.62,0,0,1,48.5,3.47a7.07,7.07,0,0,1,1.19,4,7.47,7.47,0,0,1-1.11,4.22,5.2,5.2,0,0,1-2.43,2,3.78,3.78,0,0,0,1.79,2.15,6.93,6.93,0,0,0,1.76.71,0.74,0.74,0,0,1,.51.29,0.53,0.53,0,0,1-.2.66,1.34,1.34,0,0,1-.74,0,8.47,8.47,0,0,1-3.68-1.5,5.43,5.43,0,0,1-1.73-2.18,4.9,4.9,0,0,1-2.9-1.6,6.57,6.57,0,0,1-1.43-4,8.32,8.32,0,0,1,.61-3.74A5,5,0,0,1,42,2.24h0ZM44,3a2.52,2.52,0,0,0-1,.61,3.84,3.84,0,0,0-1,2.15,10.61,10.61,0,0,0-.06,3.39,4.69,4.69,0,0,0,1,2.47,2.23,2.23,0,0,0,2.08.77,2.59,2.59,0,0,0,1.67-1.19,5.89,5.89,0,0,0,.76-2.86,9.5,9.5,0,0,0-.27-3A3.68,3.68,0,0,0,46,3.42,2.17,2.17,0,0,0,44,3h0Zm8.85-1.21c0.6-.07,1.21,0,1.81,0a0.25,0.25,0,0,1,.25.31q0,5.56,0,11.12a0.29,0.29,0,0,1-.23.35c-0.43,0-.86,0-1.28,0a1.36,1.36,0,0,1-.56-0.07,0.41,0.41,0,0,1-.12-0.38q0-5.45,0-10.9A0.46,0.46,0,0,1,52.87,1.79Zm4.54,0.43c-0.06-.16-0.05-0.43.17-0.45,0.58,0,1.17,0,1.75,0a0.31,0.31,0,0,1,.28.32c0.61,2.53,1.21,5.07,1.84,7.6,0.71-2.38,1.4-4.77,2.1-7.16a3.14,3.14,0,0,1,.25-0.71,2.32,2.32,0,0,1,.75,0c0.16,0,.2.18,0.24,0.3C65.53,4.61,66.3,7.15,67,9.69c0.63-2.54,1.23-5.08,1.85-7.62a0.32,0.32,0,0,1,.28-0.31c0.45,0,.9,0,1.34,0,0.19,0,.16.25,0.14,0.38-0.09.45-.23,0.88-0.34,1.32l-2.61,9.72a0.36,0.36,0,0,1-.35.36,2.67,2.67,0,0,1-1-.06,6.9,6.9,0,0,1-.33-0.92L64,6.14l-2,6.61a6.55,6.55,0,0,1-.21.66,0.27,0.27,0,0,1-.28.13,4.1,4.1,0,0,1-.85,0,0.36,0.36,0,0,1-.26-0.31q-1.5-5.5-3-11h0ZM73.28,1.8a1,1,0,0,1,.4,0c0.49,0,1,0,1.49,0,0.19,0,.21.23,0.2,0.38v11a0.39,0.39,0,0,1-.17.41,3.05,3.05,0,0,1-.68,0,10.42,10.42,0,0,1-1.14,0,0.28,0.28,0,0,1-.22-0.34q0-5.56,0-11.13a0.29,0.29,0,0,1,.1-0.27h0ZM84.1,21.87a0.34,0.34,0,0,1,.35-0.41h5.7a0.22,0.22,0,0,1,.26.2c0,0.37,0,.73,0,1.1S90.16,23,90,23H86.26q0,1.7,0,3.41h3.19a0.31,0.31,0,0,1,.32.13,6.11,6.11,0,0,1,0,1,0.36,0.36,0,0,1-.15.38,2.86,2.86,0,0,1-.55,0H86.26q0,1.92,0,3.85H90c0.14,0,.37,0,0.39.19s0,0.58,0,.86a0.78,0.78,0,0,1-.06.43,1.1,1.1,0,0,1-.48.07c-1.82,0-3.64,0-5.47,0a0.28,0.28,0,0,1-.3-0.34q0-5.53,0-11.06h0Zm8.7-.39a2.88,2.88,0,0,1,.65,0H100c0.14,0,.35,0,0.35.18v1.11c0,0.29-.34.24-0.56,0.24H97.61q0,5,0,10a0.27,0.27,0,0,1-.25.33c-0.54,0-1.07,0-1.61,0a0.29,0.29,0,0,1-.32-0.33c0-3.32,0-6.63,0-9.95H93.1a0.42,0.42,0,0,1-.41-0.15,5.84,5.84,0,0,1,0-1,0.4,0.4,0,0,1,.14-0.39h0Zm-52.4.46c0-.16-0.06-0.41.14-0.46,0.6,0,1.21,0,1.81,0a0.36,0.36,0,0,1,.25.35l1.83,7.58c0.75-2.54,1.48-5.08,2.23-7.62a0.4,0.4,0,0,1,.21-0.32c0.19,0,.37,0,0.56,0a0.24,0.24,0,0,1,.3.2c0.78,2.57,1.53,5.15,2.32,7.72,0.62-2.52,1.22-5,1.84-7.57a0.34,0.34,0,0,1,.28-0.34c0.44,0,.88,0,1.32,0,0.28,0,.17.37,0.14,0.55q-1.45,5.43-2.91,10.86a0.39,0.39,0,0,1-.28.37,8.13,8.13,0,0,1-.88,0,0.27,0.27,0,0,1-.25-0.2c-0.78-2.4-1.53-4.8-2.31-7.2l-2.13,7.08a0.32,0.32,0,0,1-.24.3,4.19,4.19,0,0,1-1,0,0.6,0.6,0,0,1-.32-0.53q-1.46-5.39-2.93-10.78h0Zm18.22-.21c0.1-.4.56-0.23,0.84-0.26s0.75-.14.85,0.26l3.93,11.19a0.23,0.23,0,0,1-.22.35H62.28A0.35,0.35,0,0,1,61.93,33l-1.18-3.42H57.55c-0.4,1.16-.77,2.33-1.18,3.49a0.55,0.55,0,0,1-.62.21,5,5,0,0,1-1.05,0,0.47,0.47,0,0,1,0-.48ZM58,28.3h2.4l-1.21-3.8Q58.54,26.4,58,28.3Zm8.79-6.7a0.32,0.32,0,0,1,.33-0.13c0.54,0,1.08,0,1.61,0,0.2,0,.2.25,0.2,0.4q0,4.92,0,9.83h3.67c0.11,0,.29,0,0.29.18,0,0.39,0,.79,0,1.19,0,0.21-.27.19-0.41,0.19-1.82,0-3.65,0-5.47,0-0.22,0-.26-0.24-0.25-0.41V22A1.41,1.41,0,0,1,66.74,21.6Zm8.73-.07a0.67,0.67,0,0,1,.4-0.06c0.49,0,1,0,1.48,0a0.23,0.23,0,0,1,.23.26q0,5,0,10h3.36a1.36,1.36,0,0,1,.55.06,1.52,1.52,0,0,1,.07.64,2.07,2.07,0,0,1-.07.79,0.74,0.74,0,0,1-.4.08H75.72A0.26,0.26,0,0,1,75.41,33q0-5.49,0-11a1,1,0,0,1,.06-0.49h0Z" style="fill:#2767b1"/></svg>