<?xml version="1.0" encoding="utf-8"?>
<!-- Generator: Adobe Illustrator 19.2.1, SVG Export Plug-In . SVG Version: 6.00 Build 0)  -->
<svg version="1.1" id="Слой_1" xmlns="http://www.w3.org/2000/svg" xmlns:xlink="http://www.w3.org/1999/xlink" x="0px" y="0px"
	 viewBox="0 0 120 100" style="enable-background:new 0 0 120 100;" xml:space="preserve">
<style type="text/css">
	.st0{fill:#35539E;}
	.st1{fill:url(#SVGID_1_);}
	.st2{fill:#FF5F5F;}
	.st3{opacity:0.6;fill:url(#SVGID_2_);enable-background:new    ;}
	.st4{fill:#23CDE8;}
	.st5{fill:#F9486E;}
	.st6{fill:#71D152;}
	.st7{opacity:0.9;fill:#2F84C9;enable-background:new    ;}
	.st8{opacity:0.9;fill:#FC75D9;enable-background:new    ;}
	.st9{opacity:0.9;fill:#BFB0FF;enable-background:new    ;}
	.st10{fill:#FFFFFF;}
	.st11{opacity:0.9;fill:url(#SVGID_3_);enable-background:new    ;}
	.st12{opacity:0.9;fill:url(#SVGID_4_);enable-background:new    ;}
	.st13{opacity:0.9;fill:url(#SVGID_5_);enable-background:new    ;}
	.st14{opacity:0.6;fill:url(#SVGID_6_);enable-background:new    ;}
	.st15{fill:#705A57;}
	.st16{opacity:0.4;fill:url(#SVGID_7_);enable-background:new    ;}
	.st17{opacity:0.6;fill:url(#SVGID_8_);enable-background:new    ;}
	.st18{opacity:0.6;fill:url(#SVGID_9_);enable-background:new    ;}
	.st19{opacity:0.8;}
	.st20{fill:#FCA9A7;}
	.st21{opacity:0.2;fill:url(#SVGID_10_);enable-background:new    ;}
	.st22{opacity:0.9;}
	.st23{fill:#47D2FC;}
	.st24{opacity:0.9;fill:url(#SVGID_11_);enable-background:new    ;}
	.st25{opacity:0.9;fill:url(#SVGID_12_);enable-background:new    ;}
	.st26{opacity:0.6;fill:url(#SVGID_13_);enable-background:new    ;}
	.st27{fill:url(#SVGID_14_);}
	.st28{fill:url(#SVGID_15_);}
	.st29{fill:url(#SVGID_16_);}
	.st30{fill:url(#SVGID_17_);}
	.st31{fill:url(#SVGID_18_);}
	.st32{fill:url(#SVGID_19_);}
	.st33{opacity:0.9;fill:url(#SVGID_20_);enable-background:new    ;}
	.st34{fill:url(#SVGID_21_);}
	.st35{fill:url(#SVGID_22_);}
	.st36{fill:#5F6767;}
	.st37{fill:url(#SVGID_23_);}
	.st38{fill:url(#SVGID_24_);}
	.st39{fill:url(#SVGID_25_);}
	.st40{fill:url(#SVGID_26_);}
	.st41{fill:#FF9045;}
	.st42{opacity:0.9;fill:url(#SVGID_27_);enable-background:new    ;}
	.st43{fill:#FC75D9;}
	.st44{fill:#2F84C9;}
	.st45{opacity:0.6;fill:url(#SVGID_28_);enable-background:new    ;}
	.st46{fill:url(#SVGID_29_);}
	.st47{fill:url(#SVGID_30_);}
	.st48{fill:url(#SVGID_31_);}
	.st49{fill:url(#SVGID_32_);}
	.st50{fill:url(#SVGID_33_);}
	.st51{opacity:0.9;fill:url(#SVGID_34_);enable-background:new    ;}
	.st52{opacity:0.9;fill:url(#SVGID_35_);enable-background:new    ;}
	.st53{opacity:0.2;fill:url(#SVGID_36_);enable-background:new    ;}
	.st54{opacity:0.9;fill:url(#SVGID_37_);enable-background:new    ;}
	.st55{opacity:0.9;fill:url(#SVGID_38_);enable-background:new    ;}
	.st56{opacity:0.2;fill:url(#SVGID_39_);enable-background:new    ;}
	.st57{opacity:0.9;fill:url(#SVGID_40_);enable-background:new    ;}
	.st58{opacity:0.9;fill:url(#SVGID_41_);enable-background:new    ;}
	.st59{opacity:0.2;fill:url(#SVGID_42_);enable-background:new    ;}
	.st60{fill:#BFB0FF;}
	.st61{opacity:0.9;fill:url(#SVGID_43_);enable-background:new    ;}
	.st62{opacity:0.6;fill:url(#SVGID_44_);enable-background:new    ;}
	.st63{opacity:0.6;fill:url(#SVGID_45_);enable-background:new    ;}
	.st64{opacity:0.9;fill:url(#SVGID_46_);enable-background:new    ;}
	.st65{opacity:0.6;fill:url(#SVGID_47_);enable-background:new    ;}
</style>
<title>responsive</title>
<g id="Слой_1-2">
	<rect x="23.3" y="16.3" class="st0" width="72.6" height="42.1"/>
	
		<linearGradient id="SVGID_1_" gradientUnits="userSpaceOnUse" x1="19.9791" y1="1019.3974" x2="99.869" y2="1019.3974" gradientTransform="matrix(1 0 0 1 0 -981.55)">
		<stop  offset="7.000000e-002" style="stop-color:#666666"/>
		<stop  offset="0.33" style="stop-color:#333333"/>
		<stop  offset="1" style="stop-color:#000000"/>
	</linearGradient>
	<path class="st1" d="M96.9,14H22.6c-1.3,0-2.6,0.7-2.6,2v45.7h79.9V15.9C99.9,14.7,98.2,14,96.9,14z M95.3,58.2h-72V16.5h72
		L95.3,58.2L95.3,58.2L95.3,58.2z"/>
	<rect x="34" y="21.1" class="st2" width="10.4" height="10.5"/>
	
		<linearGradient id="SVGID_2_" gradientUnits="userSpaceOnUse" x1="38.9039" y1="1007.8494" x2="44.433" y2="1014.3166" gradientTransform="matrix(1 0 0 1 0 -981.55)">
		<stop  offset="0.1" style="stop-color:#FFAC9C"/>
		<stop  offset="0.19" style="stop-color:#FFB6A8"/>
		<stop  offset="0.29" style="stop-color:#FFBDB0"/>
		<stop  offset="0.39" style="stop-color:#FFCFC6"/>
		<stop  offset="0.49" style="stop-color:#FFDAD3"/>
		<stop  offset="0.58" style="stop-color:#FFDED7"/>
		<stop  offset="0.99" style="stop-color:#FFEEEB"/>
	</linearGradient>
	<polygon class="st3" points="37.1,28 39.9,31.6 44.3,31.6 44.3,28.6 41.3,25 	"/>
	<rect x="44.3" y="21.1" class="st4" width="10.4" height="10.5"/>
	<rect x="54.6" y="21.1" class="st5" width="10.4" height="10.5"/>
	<rect x="64.9" y="21.1" class="st6" width="10.4" height="10.5"/>
	<rect x="33.9" y="32.3" class="st7" width="10.4" height="10.5"/>
	<rect x="44.3" y="32.3" class="st8" width="10.4" height="10.5"/>
	<rect x="54.6" y="32.3" class="st9" width="10.4" height="10.5"/>
	<path class="st10" d="M39.2,27.1l-0.5-0.5L37.1,28c0.1,0.1,0.2,0.1,0.2,0.1h3.9c0.1,0,0.2,0,0.2-0.1l-1.7-1.3L39.2,27.1z"/>
	<path class="st10" d="M41.3,25c-0.1-0.1-0.2-0.1-0.2-0.1h-3.9c-0.1,0-0.2,0-0.2,0.1l2.2,1.8L41.3,25z"/>
	<polygon class="st10" points="36.9,25.1 36.9,27.8 38.5,26.5 	"/>
	<polygon class="st10" points="39.9,26.5 41.5,27.8 41.5,25.1 	"/>
	<polygon class="st10" points="49.5,27.4 50.8,26 50,26 50,24.3 48.9,24.3 48.9,26 48.1,26 	"/>
	<polygon class="st10" points="50.6,27.4 50.6,27.9 48.4,27.9 48.4,27.4 47.8,27.4 47.8,27.9 47.8,28.5 51.1,28.5 51.1,27.4 	"/>
	<path class="st10" d="M60.2,26c0.2-0.2,0.4-0.4,0.4-0.7c-0.1-0.5-0.5-0.9-1-0.9c-0.4,0.1-0.7,0.4-0.8,0.8c0,0.3,0.2,0.6,0.4,0.7
		c-0.6,0-1.1,0.5-1.1,1.1c0,0,0,0,0,0v1h0.1c0.5,0.2,1,0.3,1.5,0.3c0.5,0,0.9-0.1,1.3-0.3h0.1v-1c0-0.6-0.3-1.1-0.9-1.1
		C60.3,26,60.3,26,60.2,26z"/>
	<path class="st10" d="M71.2,27.8c-0.1,0-0.1,0-0.2-0.1c-0.1-0.1-0.1-0.2,0-0.3l0,0c0.5-0.5,0.6-1.3,0.1-1.9l-0.1-0.1v-0.1
		c-0.1-0.1-0.1-0.2,0-0.3l0,0c0.1-0.1,0.2-0.1,0.3,0c0.6,0.7,0.7,1.8,0.1,2.5l-0.1,0.1l-0.1,0.1C71.4,27.7,71.3,27.7,71.2,27.8z
		 M70.6,27.4c-0.1,0-0.1,0-0.2-0.1c-0.1-0.1-0.1-0.2,0-0.3l0,0c0.3-0.3,0.3-0.9,0.1-1.2h-0.1c-0.1-0.1-0.1-0.2,0-0.3l0,0
		c0.1-0.1,0.2-0.1,0.3,0c0.5,0.5,0.5,1.2,0.1,1.7l-0.1,0.1H70.6C70.7,27.4,70.6,27.4,70.6,27.4L70.6,27.4L70.6,27.4z M70,24.5
		c0.1-0.1,0.2-0.1,0.2,0.1v3.5c0,0.1-0.1,0.2-0.2,0.1l-1-1h-0.7v-1.7H69L70,24.5z"/>
	<path class="st10" d="M59.9,35.6c-0.1,0-0.1,0-0.2,0.1l-1.3,0.8h-1c-0.1,0-0.1,0-0.2,0.1c0,0.1-0.1,0.1-0.1,0.2v1.5
		c0,0.1,0,0.1,0.1,0.2c0,0,0.1,0.1,0.2,0.1h1l1.3,0.8c0.1,0.1,0.2,0.1,0.3,0c0.1-0.1,0.1-0.1,0.1-0.2v-3.3c0-0.1-0.1-0.1-0.1-0.2
		C60,35.6,59.9,35.6,59.9,35.6z"/>
	<path class="st10" d="M61.2,38.1c0.3-0.4,0.2-1-0.2-1.3c0,0,0,0,0,0c-0.1-0.1-0.2-0.1-0.2-0.1h-0.1c-0.1,0-0.1,0-0.2,0.1
		c0,0.1-0.1,0.1-0.1,0.2c0,0.1,0,0.1,0.1,0.1l0.1,0.1l0.1,0.1l0.1,0.1c0.1,0.1,0.1,0.3,0,0.4c0,0.1-0.1,0.1-0.1,0.1l-0.1,0.1
		c-0.1,0-0.1,0.1-0.1,0.1c0,0-0.1,0.1-0.1,0.1c0,0.1,0,0.1,0.1,0.2c0,0,0.1,0.1,0.2,0.1h0.1C61,38.5,61.2,38.3,61.2,38.1z"/>
	<path class="st10" d="M61.2,35.7h-0.1c-0.1,0-0.1,0-0.2,0.1c0,0.1-0.1,0.1-0.1,0.2c0,0.1,0.1,0.2,0.2,0.3c0.1,0.1,0.2,0.1,0.3,0.2
		c0.2,0.1,0.3,0.3,0.5,0.5c0.2,0.4,0.2,0.9,0,1.3c-0.1,0.2-0.3,0.4-0.5,0.5c-0.1,0.1-0.2,0.1-0.3,0.2c-0.1,0-0.2,0.1-0.2,0.3
		c0,0.1,0,0.1,0.1,0.2c0,0,0.1,0.1,0.2,0.1h0.1c0.3-0.1,0.7-0.4,0.9-0.7c0.4-0.7,0.4-1.6,0-2.2C61.9,36.1,61.6,35.8,61.2,35.7z"/>
	<path class="st10" d="M51.9,39.4v-3.2c0-0.1,0-0.2-0.1-0.2c0,0,0,0,0,0h-2.2c-0.1,0-0.1-0.1-0.1-0.2l0,0c0-0.1-0.1-0.2-0.2-0.2
		h-1.1c-0.1,0-0.2,0.1-0.2,0.2c0,0,0,0,0,0l0,0c0,0.1-0.1,0.1-0.1,0.2l0,0c-0.1,0-0.2,0.1-0.2,0.2c0,0,0,0,0,0v1h-0.4
		c-0.1,0-0.1,0.1-0.1,0.1v0.1l0.4,2.1c0,0.1,0,0.2,0.1,0.2c0,0,0,0,0,0h4.3V39.4z M51.7,37.3v2.1l-0.4-2.3c0-0.1-0.1-0.1-0.2-0.1
		h-3.4v-0.7h4V37.3L51.7,37.3z"/>
	
		<linearGradient id="SVGID_3_" gradientUnits="userSpaceOnUse" x1="49.3009" y1="1009.0499" x2="55.5281" y2="1016.5624" gradientTransform="matrix(1 0 0 1 0 -981.55)">
		<stop  offset="0" style="stop-color:#3D6A7F"/>
		<stop  offset="5.000000e-002" style="stop-color:#497E98"/>
		<stop  offset="0.1" style="stop-color:#5490AE"/>
		<stop  offset="0.15" style="stop-color:#5A9ABB"/>
		<stop  offset="0.2" style="stop-color:#5C9EBF"/>
		<stop  offset="0.27" style="stop-color:#67B2D7"/>
		<stop  offset="0.34" style="stop-color:#72C4ED"/>
		<stop  offset="0.41" style="stop-color:#78CFFA"/>
		<stop  offset="0.48" style="stop-color:#7AD3FE"/>
		<stop  offset="0.5" style="stop-color:#88D8FE"/>
		<stop  offset="0.53" style="stop-color:#9EDFFE"/>
		<stop  offset="0.57" style="stop-color:#ABE3FE"/>
		<stop  offset="0.6" style="stop-color:#AFE5FE"/>
		<stop  offset="0.66" style="stop-color:#BDE9FE"/>
		<stop  offset="0.78" style="stop-color:#D3F0FF"/>
		<stop  offset="0.89" style="stop-color:#E0F5FF"/>
		<stop  offset="1" style="stop-color:#E4F6FF"/>
	</linearGradient>
	<polygon class="st11" points="47.8,28.5 50.6,31.6 54.6,31.6 54.6,31.1 51.1,27.4 51.1,28.5 50.4,28.5 49,28.5 	"/>
	
		<linearGradient id="SVGID_4_" gradientUnits="userSpaceOnUse" x1="39.2174" y1="1019.6706" x2="45.1728" y2="1026.8499" gradientTransform="matrix(1 0 0 1 0 -981.55)">
		<stop  offset="0" style="stop-color:#90AEE4"/>
		<stop  offset="0.17" style="stop-color:#A0BAE8"/>
		<stop  offset="0.46" style="stop-color:#B6CAED"/>
		<stop  offset="0.74" style="stop-color:#C3D4F0"/>
		<stop  offset="1" style="stop-color:#C7D7F1"/>
	</linearGradient>
	<polygon class="st12" points="38.1,38.8 40.7,42.1 44.3,42.1 43.3,41.1 40.4,37.8 40.3,38.6 40.1,38.9 38.6,38.9 	"/>
	
		<linearGradient id="SVGID_5_" gradientUnits="userSpaceOnUse" x1="69.4045" y1="1008.0981" x2="76.6656" y2="1016.8585" gradientTransform="matrix(1 0 0 1 0 -981.55)">
		<stop  offset="0" style="stop-color:#3D6A7F"/>
		<stop  offset="5.000000e-002" style="stop-color:#497E98"/>
		<stop  offset="0.1" style="stop-color:#5490AE"/>
		<stop  offset="0.15" style="stop-color:#5A9ABB"/>
		<stop  offset="0.2" style="stop-color:#5C9EBF"/>
		<stop  offset="0.27" style="stop-color:#67B2D7"/>
		<stop  offset="0.34" style="stop-color:#72C4ED"/>
		<stop  offset="0.41" style="stop-color:#78CFFA"/>
		<stop  offset="0.48" style="stop-color:#7AD3FE"/>
		<stop  offset="0.5" style="stop-color:#88D8FE"/>
		<stop  offset="0.53" style="stop-color:#9EDFFE"/>
		<stop  offset="0.57" style="stop-color:#ABE3FE"/>
		<stop  offset="0.6" style="stop-color:#AFE5FE"/>
		<stop  offset="0.66" style="stop-color:#BDE9FE"/>
		<stop  offset="0.78" style="stop-color:#D3F0FF"/>
		<stop  offset="0.89" style="stop-color:#E0F5FF"/>
		<stop  offset="1" style="stop-color:#E4F6FF"/>
	</linearGradient>
	<polygon class="st13" points="68.3,27.2 72.1,31.6 75.3,31.6 75.1,31.5 70.1,26.9 70.1,28.3 70,28.2 68.9,27.2 	"/>
	
		<linearGradient id="SVGID_6_" gradientUnits="userSpaceOnUse" x1="59.3057" y1="1008.7296" x2="64.4696" y2="1014.7683" gradientTransform="matrix(1 0 0 1 0 -981.55)">
		<stop  offset="0.1" style="stop-color:#FFAC9C"/>
		<stop  offset="0.19" style="stop-color:#FFB6A8"/>
		<stop  offset="0.29" style="stop-color:#FFBDB0"/>
		<stop  offset="0.39" style="stop-color:#FFCFC6"/>
		<stop  offset="0.49" style="stop-color:#FFDAD3"/>
		<stop  offset="0.58" style="stop-color:#FFDED7"/>
		<stop  offset="0.99" style="stop-color:#FFEEEB"/>
	</linearGradient>
	<polygon class="st14" points="58.3,28.1 61.3,31.6 64.9,31.6 64.4,31.2 61.3,28.1 	"/>
	<rect x="75.2" y="21.1" class="st15" width="10.4" height="10.5"/>
	<path class="st10" d="M81.3,24.3h-2.1c-0.1,0-0.2,0.1-0.2,0.3l0,0v3.7c0,0.1,0.1,0.2,0.2,0.3h2.6c0.1,0,0.2-0.1,0.2-0.3l0,0v-3.2
		L81.3,24.3z M81.3,24.6l0.4,0.3h-0.4V24.6L81.3,24.6z M81.8,28.3L81.8,28.3l-2.6,0.1c0,0-0.1,0-0.1-0.1c0,0,0,0,0,0l0,0v-3.7
		c0,0,0-0.1,0-0.1c0,0,0,0,0,0h2v0.6c0,0.1,0.1,0.1,0.1,0.1h0.6L81.8,28.3L81.8,28.3L81.8,28.3z M79.4,25.4h1.8c0,0,0,0.1,0,0.1
		c0,0,0,0,0,0h-1.8C79.4,25.5,79.4,25.5,79.4,25.4L79.4,25.4C79.4,25.4,79.4,25.4,79.4,25.4C79.4,25.4,79.4,25.4,79.4,25.4
		L79.4,25.4L79.4,25.4z M81.4,26C81.4,26.1,81.4,26.1,81.4,26C81.3,26.1,81.3,26.1,81.4,26l-1.9,0.1c0,0,0-0.1,0-0.1c0,0,0,0,0,0
		L81.4,26C81.3,26,81.4,26,81.4,26C81.4,26,81.4,26,81.4,26L81.4,26L81.4,26z M81.4,26.6C81.4,26.6,81.3,26.7,81.4,26.6
		C81.3,26.7,81.3,26.7,81.4,26.6l-1.9,0.1c0,0,0-0.1,0-0.1c0,0,0,0,0,0L81.4,26.6C81.3,26.5,81.4,26.5,81.4,26.6L81.4,26.6
		L81.4,26.6z M81.4,27.1C81.4,27.1,81.4,27.2,81.4,27.1C81.3,27.2,81.3,27.2,81.4,27.1l-1.9,0.1c0,0,0-0.1,0-0.1c0,0,0,0,0,0
		L81.4,27.1C81.3,27.1,81.4,27.1,81.4,27.1C81.4,27.1,81.4,27.1,81.4,27.1L81.4,27.1L81.4,27.1z"/>
	
		<linearGradient id="SVGID_7_" gradientUnits="userSpaceOnUse" x1="80.1816" y1="1009.0373" x2="85.0233" y2="1014.6882" gradientTransform="matrix(1 0 0 1 0 -981.55)">
		<stop  offset="2.000000e-002" style="stop-color:#B3A1A1"/>
		<stop  offset="0.15" style="stop-color:#C1B2B2"/>
		<stop  offset="0.38" style="stop-color:#D2C8C8"/>
		<stop  offset="0.59" style="stop-color:#DCD5D5"/>
		<stop  offset="0.79" style="stop-color:#E0D9D9"/>
	</linearGradient>
	<polygon class="st16" points="79.1,28.5 81.9,31.6 85.6,31.6 85.1,31.1 82,28.5 	"/>
	
		<linearGradient id="SVGID_8_" gradientUnits="userSpaceOnUse" x1="58.3916" y1="1018.285" x2="64.8653" y2="1025.8375" gradientTransform="matrix(1 0 0 1 0 -981.55)">
		<stop  offset="0.35" style="stop-color:#958AB1"/>
		<stop  offset="0.44" style="stop-color:#AAA0C3"/>
		<stop  offset="0.59" style="stop-color:#C7BEDC"/>
		<stop  offset="0.73" style="stop-color:#DCD4EE"/>
		<stop  offset="0.87" style="stop-color:#E9E1F9"/>
		<stop  offset="1" style="stop-color:#EDE5FD"/>
	</linearGradient>
	<polygon class="st17" points="57.2,38.5 60.5,42.8 64.9,42.8 64.9,40.8 59.8,35.6 	"/>
	
		<linearGradient id="SVGID_9_" gradientUnits="userSpaceOnUse" x1="48.7368" y1="1019.9777" x2="53.9527" y2="1026.0807" gradientTransform="matrix(1 0 0 1 0 -981.55)">
		<stop  offset="5.000000e-002" style="stop-color:#958AB1"/>
		<stop  offset="0.18" style="stop-color:#AAA0C3"/>
		<stop  offset="0.39" style="stop-color:#C7BEDC"/>
		<stop  offset="0.61" style="stop-color:#DCD4EE"/>
		<stop  offset="0.81" style="stop-color:#E9E1F9"/>
		<stop  offset="1" style="stop-color:#EDE5FD"/>
	</linearGradient>
	<polygon class="st18" points="47.6,39.5 50.2,42.8 54.6,42.8 53.8,41.9 51.8,39.5 	"/>
	<path class="st10" d="M40.2,36H38c-0.2,0-0.3,0.2-0.4,0.4l0,0v0.1h3v-0.1C40.6,36.2,40.4,36,40.2,36z M39.6,35.8l0.1,0.4h-1.1
		l0.1-0.4H39.6 M39.6,35.5h-1c-0.1,0-0.2,0.1-0.2,0.2l-0.1,0.5c0,0.1,0,0.2,0.1,0.2h1.3c0.1,0,0.1-0.1,0.2-0.1l0,0l-0.1-0.5
		C39.8,35.6,39.7,35.5,39.6,35.5L39.6,35.5L39.6,35.5z M40.3,36.8h-2.3c-0.1,0-0.2,0.1-0.2,0.2c0,0,0,0,0,0l0,0l0.2,2.3
		c0,0.2,0.1,0.3,0.3,0.3H40c0.1,0,0.2-0.1,0.3-0.3l0.2-2.3C40.4,36.9,40.4,36.8,40.3,36.8L40.3,36.8L40.3,36.8z M38.6,39.1h-0.3
		l-0.1-1.8h0.5L38.6,39.1L38.6,39.1L38.6,39.1z M39.3,39.1h-0.5v-1.8h0.5L39.3,39.1L39.3,39.1L39.3,39.1z M40,39.1h-0.3v-1.8h0.5
		L40,39.1z"/>
	<g class="st19">
		<rect x="54.6" y="43.6" class="st20" width="10.2" height="10.4"/>
		<g id="_350._Repeat">
			<path class="st10" d="M58.8,49.8c-0.3-0.3-0.5-0.7-0.5-1.1c0-0.6,0.4-1.2,1-1.3V47c-0.8,0.1-1.4,0.9-1.3,1.7c0,0.5,0.2,1,0.6,1.3
				C58.8,50.3,59,49.9,58.8,49.8z M60.8,47.5c-0.2-0.2-0.4,0.1-0.2,0.2c0.6,0.4,0.7,1.2,0.3,1.8c-0.2,0.3-0.5,0.5-0.8,0.6v0.3
				c0.8-0.1,1.3-0.8,1.3-1.7C61.4,48.2,61.1,47.7,60.8,47.5L60.8,47.5z M59.5,47.7l0.5-0.3c0.1,0,0.1-0.1,0.1-0.1l-0.1-0.1l-0.5-0.3
				c-0.1-0.1-0.1-0.1-0.1,0v0.7C59.4,47.6,59.4,47.7,59.5,47.7L59.5,47.7L59.5,47.7z M59.9,49.8l-0.5,0.4c-0.1,0-0.1,0.1-0.1,0.1
				l0.1,0.1l0.5,0.3c0.1,0.1,0.1,0.1,0.1,0V50C60,49.8,60,49.8,59.9,49.8L59.9,49.8C59.9,49.8,59.9,49.8,59.9,49.8L59.9,49.8
				L59.9,49.8z"/>
		</g>
		
			<linearGradient id="SVGID_10_" gradientUnits="userSpaceOnUse" x1="59.1223" y1="1030.6729" x2="64.5594" y2="1037.0161" gradientTransform="matrix(1 0 0 1 0 -981.55)">
			<stop  offset="3.000000e-002" style="stop-color:#7D333A"/>
			<stop  offset="0.25" style="stop-color:#80363C"/>
			<stop  offset="0.42" style="stop-color:#893F43"/>
			<stop  offset="0.57" style="stop-color:#994D4F"/>
			<stop  offset="0.71" style="stop-color:#B06260"/>
			<stop  offset="0.83" style="stop-color:#CD7D76"/>
			<stop  offset="0.96" style="stop-color:#F09E91"/>
			<stop  offset="1" style="stop-color:#FFAC9C"/>
		</linearGradient>
		<path class="st21" d="M58.4,49.9c-0.2-0.2,3.2,4.1,3.2,4.1h3.2l-1.2-1.4l-2.5-2.9C61.1,49.7,60.3,51.1,58.4,49.9z"/>
	</g>
	<g class="st22">
		<rect x="64.9" y="32.3" class="st23" width="10.4" height="10.5"/>
		<ellipse class="st10" cx="70.3" cy="35.3" rx="0.5" ry="0.4"/>
		<path class="st10" d="M71.4,36.5c-0.1-0.2-0.2-0.4-0.4-0.6h-0.1c-0.4-0.1-0.7-0.1-1.1-0.1h-0.1c-0.2,0-0.3,0-0.5-0.1l-0.2-0.6l0,0
			l0-0.4c0,0,0-0.1-0.1-0.1s-0.1,0-0.1,0.1l0,0l0.1,0.2c-0.1,0-0.2,0-0.2,0.1c0,0,0,0,0,0v0.1l0.2,0.6c0,0.1,0.1,0.2,0.2,0.3
			c0.2,0.1,0.5,0.1,0.7,0.1v3.6c0,0.2,0.1,0.3,0.3,0.3s0.3-0.1,0.3-0.3V38c0,0,0-0.1,0-0.1c0,0,0,0,0,0l0,0c0.1,0,0.1,0.1,0.1,0.1
			v1.8c0,0.1,0.1,0.2,0.2,0.3l0,0c0.1,0,0.2-0.1,0.2-0.3l0,0v-2c0.2-0.1,0.4-0.3,0.5-0.6c0.1-0.1,0.2-0.3,0.2-0.4L71.4,36.5z
			 M71.1,37c0,0.1-0.1,0.1-0.1,0.2c-0.1,0.1-0.1,0.1-0.1,0.2v-0.9C71,36.6,71.1,36.8,71.1,37L71.1,37L71.1,37z M71.1,37L71.1,37z"/>
		
			<linearGradient id="SVGID_11_" gradientUnits="userSpaceOnUse" x1="70.3111" y1="1020.5244" x2="76.0756" y2="1027.4779" gradientTransform="matrix(1 0 0 1 0 -981.55)">
			<stop  offset="0" style="stop-color:#90AEE4"/>
			<stop  offset="0.17" style="stop-color:#A0BAE8"/>
			<stop  offset="0.46" style="stop-color:#B6CAED"/>
			<stop  offset="0.74" style="stop-color:#C3D4F0"/>
			<stop  offset="1" style="stop-color:#C7D7F1"/>
		</linearGradient>
		<polygon class="st24" points="69.7,40.3 71.7,42.8 75.2,42.8 74.3,41.8 70.9,38.2 70.7,40.3 		"/>
	</g>
	<g class="st19">
		<rect x="33.8" y="43.6" class="st6" width="10.5" height="10.6"/>
		<path class="st10" d="M40.6,48.3l-0.1-0.3c0.1-0.2,0.2-0.4,0.2-0.6l-0.4-0.3c-0.2,0.1-0.4,0.1-0.6,0.3l-0.2-0.1
			c-0.1-0.2-0.2-0.4-0.2-0.6h-0.5c-0.1,0.2-0.2,0.4-0.2,0.6l-0.2,0.1c-0.2-0.1-0.4-0.2-0.6-0.2l-0.3,0.3c0.1,0.2,0.2,0.4,0.2,0.6
			l-0.1,0.3c-0.2,0.1-0.4,0.1-0.6,0.3V49c0.2,0.1,0.4,0.2,0.6,0.3l0.1,0.3c-0.1,0.2-0.2,0.4-0.2,0.6l0.4,0.3
			c0.2-0.1,0.4-0.1,0.6-0.3l0.2,0.1c0.1,0.2,0.2,0.4,0.2,0.6h0.5c0.1-0.2,0.2-0.4,0.2-0.6l0.2-0.1c0.2,0.1,0.4,0.2,0.6,0.2l0.4-0.3
			c-0.1-0.2-0.2-0.4-0.2-0.6l0.1-0.3c0.2-0.1,0.4-0.1,0.6-0.3v-0.4C41,48.5,40.8,48.4,40.6,48.3z M39.8,48.9c0,0.4-0.3,0.7-0.6,0.7
			l0,0c-0.3,0-0.6-0.3-0.7-0.6c0-0.4,0.3-0.7,0.6-0.7h0C39.4,48.2,39.7,48.5,39.8,48.9L39.8,48.9L39.8,48.9z"/>
		
			<linearGradient id="SVGID_12_" gradientUnits="userSpaceOnUse" x1="39.4686" y1="1030.4014" x2="46.245" y2="1038.5824" gradientTransform="matrix(1 0 0 1 0 -981.55)">
			<stop  offset="0" style="stop-color:#90AEE4"/>
			<stop  offset="0.17" style="stop-color:#A0BAE8"/>
			<stop  offset="0.46" style="stop-color:#B6CAED"/>
			<stop  offset="0.74" style="stop-color:#C3D4F0"/>
			<stop  offset="1" style="stop-color:#C7D7F1"/>
		</linearGradient>
		<polygon class="st25" points="38.8,50.9 41.5,54.1 44.3,54.1 44.3,52.1 40.7,47.5 39.4,49.6 		"/>
	</g>
	<rect x="44.2" y="43.6" class="st15" width="10.4" height="10.6"/>
	<polygon class="st10" points="50.2,48.9 48.2,48.9 48.2,49.2 48.4,49.2 48.4,50.9 49.9,50.9 49.9,49.2 50.2,49.2 	"/>
	<ellipse class="st10" cx="47" cy="47.1" rx="0.4" ry="0.4"/>
	<path class="st10" d="M52.2,48.5L52.2,48.5c-0.2,0.4-0.4,0.8-0.5,1.2h-0.1c-0.2,0-0.5,0.1-0.6,0.3l0,0l0.1,0.1l0,0l0.4-0.2v0.7
		l-0.2,0.1l0.1,0.1l0.2-0.1l0.2,0.2l0.1-0.1l-0.2-0.2v-0.7h0.3v-0.1C51.8,49.4,52,49,52.2,48.5L52.2,48.5L52.2,48.5z"/>
	<path class="st10" d="M47.7,48.3c-0.2,0.1-0.4,0.1-0.5,0c0-0.1,0.1-0.2,0.1-0.3c0-0.2-0.1-0.4-0.3-0.4c-0.1,0-0.2,0-0.3,0.1l0,0
		c-0.1,0.2-0.1,0.5-0.1,0.7c0,0.7,0.1,1,0.2,1v1.1c0,0.1,0.1,0.2,0.2,0.2s0.2-0.1,0.2-0.2v-1.2h0.1c0-0.1,0.1-0.1,0.1-0.2
		c0-0.2,0-0.4,0.1-0.6c0.3,0.1,0.5,0,0.8-0.1C48.1,48.5,47.9,48.2,47.7,48.3z"/>
	<path class="st10" d="M51.6,49.3c0-0.3,0.1-0.5,0.3-0.7c0.1-0.1,0.1-0.4,0-0.5l0,0c-0.2-0.1-0.4-0.1-0.5,0l0,0l-0.1,0.1
		c-0.3,0-0.6-0.1-0.8-0.2h-0.2l-0.8-0.7l-0.1,0.1l0.8,0.7c0,0.1,0,0.2,0.1,0.3h0.1c0.2,0.1,0.5,0.1,0.8,0.1
		c-0.1,0.2-0.2,0.5-0.2,0.7c-0.5,0.2-0.9,0.7-0.9,1.3c-0.1,0.3,0.5,0.3,0.5,0c0-0.5,0.4-0.9,0.8-1c0.1,0.1,0.3,0,0.4-0.1
		C51.6,49.4,51.6,49.3,51.6,49.3z"/>
	<ellipse class="st10" cx="51.7" cy="47.5" rx="0.4" ry="0.4"/>
	
		<linearGradient id="SVGID_13_" gradientUnits="userSpaceOnUse" x1="48.6762" y1="1031.0223" x2="55.634" y2="1039.4186" gradientTransform="matrix(1 0 0 1 0 -981.55)">
		<stop  offset="0" style="stop-color:#90AEE4"/>
		<stop  offset="8.000000e-002" style="stop-color:#A2BBE8"/>
		<stop  offset="0.18" style="stop-color:#B3C8EC"/>
		<stop  offset="0.31" style="stop-color:#BED1EF"/>
		<stop  offset="0.49" style="stop-color:#C5D6F1"/>
		<stop  offset="1" style="stop-color:#C7D7F1"/>
	</linearGradient>
	<polygon class="st26" points="46.6,50.9 50.6,54.1 54.6,54.1 54.6,52.7 51.6,50.9 	"/>
	
		<radialGradient id="SVGID_14_" cx="2502.1956" cy="3884.6519" r="50.55" gradientTransform="matrix(0.1591 0 0 0.164 -326.6646 -556.9893)" gradientUnits="userSpaceOnUse">
		<stop  offset="0" style="stop-color:#FFFFFF"/>
		<stop  offset="0.17" style="stop-color:#FFFFFF;stop-opacity:0.78"/>
		<stop  offset="0.4" style="stop-color:#FFFFFF;stop-opacity:0.5"/>
		<stop  offset="0.6" style="stop-color:#FFFFFF;stop-opacity:0.29"/>
		<stop  offset="0.78" style="stop-color:#FFFFFF;stop-opacity:0.13"/>
		<stop  offset="0.92" style="stop-color:#FFFFFF;stop-opacity:4.000000e-002"/>
		<stop  offset="1" style="stop-color:#FFFFFF;stop-opacity:0"/>
	</radialGradient>
	<path class="st27" d="M62.4,78.4c1.9-2.2,4.6-3.6,7.4-3.8c0.2,0.2,0.4,0.5,0.6,0.6c1.6,1.7,4.1,3.2,0,3.2L62.4,78.4L62.4,78.4z"/>
	
		<linearGradient id="SVGID_15_" gradientUnits="userSpaceOnUse" x1="51.7607" y1="1060.3517" x2="70.0659" y2="1060.3517" gradientTransform="matrix(1 0 0 1 0 -981.55)">
		<stop  offset="1.000000e-002" style="stop-color:#FFFFFF;stop-opacity:0"/>
		<stop  offset="0.18" style="stop-color:#FFFFFF;stop-opacity:0.38"/>
		<stop  offset="0.34" style="stop-color:#FFFFFF;stop-opacity:0.71"/>
		<stop  offset="0.45" style="stop-color:#FFFFFF;stop-opacity:0.92"/>
		<stop  offset="0.51" style="stop-color:#FFFFFF"/>
		<stop  offset="1" style="stop-color:#FFFFFF;stop-opacity:0"/>
	</linearGradient>
	<path class="st28" d="M51.8,78.8c1.5,0,3-0.1,4.6-0.1l0,0C54.8,78.8,53.3,78.8,51.8,78.8z"/>
	
		<linearGradient id="SVGID_16_" gradientUnits="userSpaceOnUse" x1="21.9585" y1="1051.0415" x2="103.4136" y2="1045.7062" gradientTransform="matrix(1 0 0 1 0 -981.55)">
		<stop  offset="0" style="stop-color:#78797D"/>
		<stop  offset="0.32" style="stop-color:#737478"/>
		<stop  offset="0.49" style="stop-color:#6D6F73"/>
		<stop  offset="1" style="stop-color:#6D6F73"/>
	</linearGradient>
	<path class="st29" d="M23.3,68.1c0,1.2,1.3,2.2,2.5,2.2h69.8c1.2,0,2.6-0.9,2.6-2.2v-4.3H23.3V68.1L23.3,68.1z"/>
	
		<linearGradient id="SVGID_17_" gradientUnits="userSpaceOnUse" x1="55.2682" y1="1020.0309" x2="96.4515" y2="1020.0309" gradientTransform="matrix(1 0 0 1 0 -981.55)">
		<stop  offset="0" style="stop-color:#FFFFFF;stop-opacity:0"/>
		<stop  offset="0.17" style="stop-color:#EEF3F4;stop-opacity:6.000000e-002"/>
		<stop  offset="0.4" style="stop-color:#BFD1D6;stop-opacity:0.25"/>
		<stop  offset="0.65" style="stop-color:#7299A4;stop-opacity:0.55"/>
		<stop  offset="0.93" style="stop-color:#074C5F;stop-opacity:0.97"/>
		<stop  offset="0.94" style="stop-color:#00475A"/>
	</linearGradient>
	<path class="st30" d="M81.5,16.2h12.8c0,0,2.5,0,2.2,2.5l-0.1,41.9H55.3"/>
	
		<linearGradient id="SVGID_18_" gradientUnits="userSpaceOnUse" x1="59.959" y1="1049.4452" x2="59.959" y2="1060.4225" gradientTransform="matrix(1 0 0 1 0 -981.55)">
		<stop  offset="8.000000e-002" style="stop-color:#6D6F73"/>
		<stop  offset="0.13" style="stop-color:#97999C"/>
		<stop  offset="0.18" style="stop-color:#CCCDCE"/>
		<stop  offset="0.21" style="stop-color:#E0E1E2"/>
		<stop  offset="0.32" style="stop-color:#A7A9AC"/>
		<stop  offset="0.39" style="stop-color:#868789"/>
		<stop  offset="0.46" style="stop-color:#636363"/>
		<stop  offset="0.53" style="stop-color:#6E6F6F"/>
		<stop  offset="0.65" style="stop-color:#8B8D8F"/>
		<stop  offset="0.74" style="stop-color:#A6AAAD"/>
	</linearGradient>
	<path class="st31" d="M69.8,74.2c-1.8-1.8-1.8-5.7-1.8-5.7H51.9c0,0-0.1,3.9-1.8,5.7s-4.4,3.4,0.2,3.4h19.3
		C74.3,77.6,71.6,76,69.8,74.2z"/>
	
		<linearGradient id="SVGID_19_" gradientUnits="userSpaceOnUse" x1="18.598" y1="1049.2909" x2="105.4072" y2="1043.6028" gradientTransform="matrix(1 0 0 1 0 -981.55)">
		<stop  offset="0" style="stop-color:#898A8F"/>
		<stop  offset="5.000000e-002" style="stop-color:#909196"/>
		<stop  offset="0.31" style="stop-color:#B1B2B6"/>
		<stop  offset="0.57" style="stop-color:#C8CACD"/>
		<stop  offset="0.8" style="stop-color:#D6D8DB"/>
		<stop  offset="1" style="stop-color:#DBDDE0"/>
	</linearGradient>
	<path class="st32" d="M20,66c0.1,1.5,1.3,2.6,2.6,2.5h74.3c1.3,0,2.9-1.2,2.9-2.5v-4.3H20V66L20,66z"/>
	<path class="st10" d="M106.3,54.5c-1.1-1-2.6-1-3.7,0l-0.4-0.4c1.3-1.3,3.2-1.3,4.5,0L106.3,54.5L106.3,54.5z M106.1,54.6l-0.4,0.4
		c-0.7-0.7-1.8-0.7-2.5,0l-0.4-0.4C103.8,53.8,105.2,53.8,106.1,54.6L106.1,54.6L106.1,54.6z M105.5,55.3l-0.4,0.4
		c-0.4-0.3-0.9-0.3-1.2,0l-0.4-0.4C104,54.7,104.9,54.7,105.5,55.3L105.5,55.3L105.5,55.3z M104.4,55.7c0.3,0,0.5,0.3,0.5,0.6
		c0,0.3-0.3,0.6-0.6,0.6c-0.3,0-0.5-0.3-0.5-0.6c0,0,0,0,0,0C103.9,56,104.1,55.7,104.4,55.7L104.4,55.7L104.4,55.7z"/>
	<rect x="87.3" y="50.5" class="st23" width="11.4" height="11.6"/>
	<ellipse class="st10" cx="93.3" cy="53.8" rx="0.5" ry="0.5"/>
	<path class="st10" d="M94.5,55.3c-0.1-0.3-0.3-0.5-0.5-0.6L94,54.6l0,0c-0.4-0.1-0.8-0.1-1.2-0.1h-0.1c-0.2,0-0.4,0-0.5-0.1
		c-0.1-0.2-0.2-0.4-0.2-0.6l0,0l-0.1-0.4c0,0,0-0.1-0.1-0.1c0,0-0.1,0-0.1,0.1l0.1,0.2c-0.1,0-0.3,0.1-0.3,0.2v0.1
		c0.1,0.2,0.1,0.4,0.2,0.6c0,0.1,0.1,0.2,0.2,0.3c0.2,0.1,0.5,0.1,0.8,0.1V59c0,0.2,0.1,0.3,0.3,0.3c0,0,0.1,0,0.1,0
		c0.1,0,0.2-0.1,0.2-0.3v-2c0,0,0-0.1,0.1-0.1l0,0c0.1,0,0.1,0.1,0.1,0.1v2c0,0.1,0.1,0.2,0.2,0.3c0,0,0.1,0,0.1,0l0,0
		c0.1,0,0.2-0.1,0.3-0.3l0,0v-2.3c0.2-0.1,0.4-0.4,0.5-0.6c0.1-0.1,0.2-0.3,0.2-0.5C94.7,55.5,94.6,55.3,94.5,55.3z M94.2,55.8
		c-0.1,0.1-0.1,0.1-0.1,0.2C94,56,94,56.1,94,56.2v-1c0.1,0.2,0.2,0.3,0.2,0.5V55.8z M94.2,55.7L94.2,55.7z"/>
	
		<linearGradient id="SVGID_20_" gradientUnits="userSpaceOnUse" x1="93.2833" y1="1039.4617" x2="99.6464" y2="1047.1364" gradientTransform="matrix(1 0 0 1 0 -981.55)">
		<stop  offset="0" style="stop-color:#90AEE4"/>
		<stop  offset="0.17" style="stop-color:#A0BAE8"/>
		<stop  offset="0.46" style="stop-color:#B6CAED"/>
		<stop  offset="0.74" style="stop-color:#C3D4F0"/>
		<stop  offset="1" style="stop-color:#C7D7F1"/>
	</linearGradient>
	<polygon class="st33" points="92.6,59.3 94.8,62.1 98.7,62.1 97.7,61 94,57.1 93.7,59.3 	"/>
	
		<radialGradient id="SVGID_21_" cx="-3747.4656" cy="3945.5918" r="63.45" gradientTransform="matrix(-0.1591 0 0 0.164 -492.3178 -556.9893)" gradientUnits="userSpaceOnUse">
		<stop  offset="0" style="stop-color:#FFFFFF"/>
		<stop  offset="0.17" style="stop-color:#FFFFFF;stop-opacity:0.78"/>
		<stop  offset="0.4" style="stop-color:#FFFFFF;stop-opacity:0.5"/>
		<stop  offset="0.6" style="stop-color:#FFFFFF;stop-opacity:0.29"/>
		<stop  offset="0.78" style="stop-color:#FFFFFF;stop-opacity:0.13"/>
		<stop  offset="0.92" style="stop-color:#FFFFFF;stop-opacity:4.000000e-002"/>
		<stop  offset="1" style="stop-color:#FFFFFF;stop-opacity:0"/>
	</radialGradient>
	<path class="st34" d="M114.7,87.4c-1.1-2.2-4.4-4.4-8.7-4.8c-0.2,0.3-0.4,0.7-0.6,1c-1.9,2-4.8,3.9,0,3.9
		C105.4,87.4,114.7,87.4,114.7,87.4z"/>
	
		<linearGradient id="SVGID_22_" gradientUnits="userSpaceOnUse" x1="55.498" y1="1049.9557" x2="107.8747" y2="1049.9557" gradientTransform="matrix(1 0 0 1 0 -981.55)">
		<stop  offset="7.000000e-002" style="stop-color:#666666"/>
		<stop  offset="0.33" style="stop-color:#333333"/>
		<stop  offset="1" style="stop-color:#000000"/>
	</linearGradient>
	<path class="st35" d="M107.9,84.6c0.1,0.8-0.5,1.5-1.2,1.7h-50c-0.8-0.1-1.3-0.8-1.2-1.7V52.2c-0.1-0.8,0.5-1.5,1.2-1.6h50
		c0.8,0.1,1.3,0.8,1.2,1.7L107.9,84.6L107.9,84.6L107.9,84.6z"/>
	<rect x="57.7" y="52.5" class="st0" width="48.3" height="30.2"/>
	<path class="st36" d="M46.7,86.8c0,0-0.5,0.8,2.6,1.5h64.8c0,0,2.2-0.1,2.8-1.1v-0.6L46.7,86.8z"/>
	
		<linearGradient id="SVGID_23_" gradientUnits="userSpaceOnUse" x1="46.6206" y1="1067.7354" x2="116.9072" y2="1067.7354" gradientTransform="matrix(1 0 0 1 0 -981.55)">
		<stop  offset="0" style="stop-color:#999C9D"/>
		<stop  offset="0" style="stop-color:#A5A7A9"/>
		<stop  offset="0" style="stop-color:#C2C3C5"/>
		<stop  offset="1.000000e-002" style="stop-color:#D9D8DA"/>
		<stop  offset="1.000000e-002" style="stop-color:#E9E7EA"/>
		<stop  offset="1.000000e-002" style="stop-color:#F2F0F3"/>
		<stop  offset="2.000000e-002" style="stop-color:#F5F3F6"/>
		<stop  offset="5.000000e-002" style="stop-color:#DFE1E3"/>
		<stop  offset="0.19" style="stop-color:#D1D1D1"/>
		<stop  offset="0.51" style="stop-color:#E3E5E7"/>
		<stop  offset="0.87" style="stop-color:#D1D1D1"/>
		<stop  offset="0.95" style="stop-color:#DFE1E3"/>
		<stop  offset="0.99" style="stop-color:#F5F3F6"/>
		<stop  offset="1" style="stop-color:#999C9D"/>
	</linearGradient>
	<path class="st37" d="M46.7,85.1h70.2V87c0,0,0.1,0.3-0.7,0.2H47.3c0,0-0.6,0.2-0.7-0.3L46.7,85.1z"/>
	<path class="st36" d="M113.6,86.2c0,0.1-0.1,0.1-0.1,0.1h-2.4c-0.1,0-0.1-0.1-0.1-0.1l0,0c0-0.1,0.1-0.1,0.1-0.1h2.4
		C113.6,86,113.6,86.1,113.6,86.2L113.6,86.2z"/>
	
		<linearGradient id="SVGID_24_" gradientUnits="userSpaceOnUse" x1="81.7015" y1="1067.681" x2="81.7015" y2="1066.6749" gradientTransform="matrix(1 0 0 1 0 -981.55)">
		<stop  offset="0.34" style="stop-color:#676B6C"/>
		<stop  offset="0.36" style="stop-color:#707475"/>
		<stop  offset="0.46" style="stop-color:#989B9C"/>
		<stop  offset="0.55" style="stop-color:#B7B9BB"/>
		<stop  offset="0.64" style="stop-color:#CDCFD1"/>
		<stop  offset="0.73" style="stop-color:#DADDDE"/>
		<stop  offset="0.81" style="stop-color:#DFE1E3"/>
		<stop  offset="0.98" style="stop-color:#E3E5E7"/>
	</linearGradient>
	<path class="st38" d="M77,85.1c-0.1,0.4,0,0.8,0.4,1l0,0c0.1,0.1,0.2,0.1,0.2,0.1h8.1c0.4,0,0.7-0.2,0.8-0.6v-0.3L77,85.1z"/>
	
		<linearGradient id="SVGID_25_" gradientUnits="userSpaceOnUse" x1="77.1302" y1="1067.599" x2="77.1302" y2="1066.6526" gradientTransform="matrix(1 0 0 1 0 -981.55)">
		<stop  offset="2.000000e-002" style="stop-color:#5F6767"/>
		<stop  offset="0.48" style="stop-color:#676B6C"/>
		<stop  offset="0.51" style="stop-color:#717576"/>
		<stop  offset="0.62" style="stop-color:#878A8B"/>
		<stop  offset="0.72" style="stop-color:#949899"/>
		<stop  offset="0.81" style="stop-color:#999C9D"/>
	</linearGradient>
	<path class="st39" d="M77,85.1h-0.1c-0.1,0.3,0,0.7,0.3,0.9c0,0,0,0,0,0l0,0l0.1,0.1C77.1,86,76.9,85.6,77,85.1
		C77,85.2,77,85.2,77,85.1C77,85.2,77,85.2,77,85.1C77,85.1,77,85.1,77,85.1z"/>
	
		<linearGradient id="SVGID_26_" gradientUnits="userSpaceOnUse" x1="82.0757" y1="1067.6362" x2="82.0757" y2="1066.7047" gradientTransform="matrix(1 0 0 1 0 -981.55)">
		<stop  offset="2.000000e-002" style="stop-color:#5F6767"/>
		<stop  offset="0.48" style="stop-color:#676B6C"/>
		<stop  offset="0.51" style="stop-color:#717576"/>
		<stop  offset="0.62" style="stop-color:#878A8B"/>
		<stop  offset="0.72" style="stop-color:#949899"/>
		<stop  offset="0.81" style="stop-color:#999C9D"/>
	</linearGradient>
	<path class="st40" d="M86.6,85.1L86.6,85.1c0,0.4-0.2,0.8-0.5,0.9h-8.5c0.1,0,0.2,0.1,0.2,0.1h8.1c0.4,0,0.7-0.2,0.8-0.6
		C86.6,85.4,86.6,85.3,86.6,85.1z"/>
	<g class="st22">
		<rect x="65.4" y="57.1" class="st41" width="8.3" height="8.4"/>
		<rect x="73.6" y="57.1" class="st15" width="8.3" height="8.4"/>
		<rect x="82" y="57.1" class="st23" width="8.3" height="8.4"/>
		<path class="st10" d="M68.6,61.2v0.6h-0.5v-0.6H68.6 M68.7,61H68c-0.1,0-0.1,0-0.1,0.1l0,0v1.8c0,0,0,0.1,0,0.1c0,0,0,0,0,0h0.8
			c0.1,0,0.1,0,0.1-0.1l0,0v-1.8C68.8,61.1,68.8,61,68.7,61L68.7,61L68.7,61z"/>
		<path class="st10" d="M69.8,60.8V62h-0.5v-1.1H69.8 M69.9,60.6h-0.8c-0.1,0-0.1,0-0.1,0.1l0,0v2.2c0,0,0,0.1,0,0.1c0,0,0,0,0,0
			h0.8c0.1,0,0.1,0,0.1-0.1l0,0L69.9,60.6C70,60.6,69.9,60.6,69.9,60.6C69.9,60.6,69.9,60.6,69.9,60.6L69.9,60.6z"/>
		<path class="st10" d="M70.9,60v1.5h-0.5V60H70.9 M71,59.8h-0.8c-0.1,0-0.1,0-0.1,0.1l0,0v3c0,0,0,0.1,0,0.1c0,0,0,0,0,0h0.8
			c0,0,0.1,0,0.1-0.1c0,0,0,0,0,0L71,59.8C71.1,59.8,71.1,59.8,71,59.8L71,59.8L71,59.8z"/>
		<path class="st10" d="M79.4,60.9c-0.1,0-0.2,0.1-0.2,0.3c0,0.1,0.1,0.2,0.2,0.2c0.1,0,0.2-0.1,0.2-0.2
			C79.6,61,79.5,60.9,79.4,60.9C79.4,60.9,79.4,60.9,79.4,60.9L79.4,60.9L79.4,60.9z M76.2,60.9c-0.1,0-0.2,0.1-0.2,0.3
			c0,0.1,0.1,0.2,0.2,0.2c0.1,0,0.2-0.1,0.2-0.2C76.5,61,76.4,60.9,76.2,60.9C76.2,60.9,76.2,60.9,76.2,60.9L76.2,60.9L76.2,60.9z
			 M78.7,60.4c-0.2,0-0.3,0.2-0.3,0.4c0,0.2,0.2,0.3,0.4,0.3c0.2,0,0.3-0.1,0.3-0.3c0,0,0,0,0,0C79.1,60.6,78.9,60.4,78.7,60.4
			C78.8,60.4,78.7,60.4,78.7,60.4L78.7,60.4L78.7,60.4z M79.8,62.4h-0.4v-0.7c0-0.1,0-0.2-0.1-0.3h0.1c0.2,0,0.3,0.1,0.4,0.3
			c0,0,0,0,0,0l0,0L79.8,62.4L79.8,62.4L79.8,62.4z M76.9,60.4c-0.2,0-0.3,0.2-0.3,0.4c0,0.2,0.2,0.3,0.4,0.3c0.2,0,0.3-0.1,0.3-0.3
			c0,0,0,0,0,0C77.2,60.6,77.1,60.4,76.9,60.4C76.9,60.4,76.9,60.4,76.9,60.4L76.9,60.4L76.9,60.4z M76.2,61.4h0.1
			c-0.1,0.1-0.1,0.2-0.1,0.3v0.7h-0.4v-0.7C75.9,61.6,76,61.4,76.2,61.4C76.2,61.4,76.2,61.4,76.2,61.4L76.2,61.4L76.2,61.4z
			 M77.8,59.8c-0.2,0-0.4,0.2-0.4,0.5c0,0.3,0.2,0.5,0.5,0.4l0,0c0.2,0,0.4-0.2,0.4-0.5C78.3,60,78.1,59.8,77.8,59.8
			C77.8,59.8,77.8,59.8,77.8,59.8L77.8,59.8L77.8,59.8z M79.2,62.7h-0.6v-1.1c0-0.1-0.1-0.3-0.1-0.4h0.2c0.3,0,0.5,0.2,0.5,0.5l0,0
			L79.2,62.7L79.2,62.7L79.2,62.7z M76.9,61.7v1h-0.6v-1c0-0.3,0.2-0.5,0.4-0.5c0,0,0.1,0,0.1,0H77C77,61.4,76.9,61.5,76.9,61.7
			L76.9,61.7L76.9,61.7z M77,63h1.5v-1.4c0-0.5-0.3-0.8-0.8-0.8c-0.4,0-0.8,0.4-0.8,0.8c0,0,0,0,0,0L77,63L77,63L77,63z"/>
		<path class="st10" d="M87.3,61l-0.1-0.2c0.1-0.1,0.1-0.3,0.2-0.4l-0.2-0.3c-0.2,0.1-0.3,0.1-0.5,0.2l-0.2-0.1
			c-0.1-0.2-0.1-0.3-0.2-0.4h-0.4c-0.1,0.1-0.1,0.3-0.2,0.4l-0.2,0.1c-0.2-0.1-0.3-0.1-0.5-0.2l-0.2,0.3c0.1,0.1,0.1,0.3,0.2,0.4
			L85,61c-0.2,0.1-0.3,0.1-0.5,0.2v0.4c0.2,0.1,0.3,0.1,0.5,0.2l0.1,0.2c-0.1,0.1-0.1,0.3-0.2,0.4l0.2,0.3c0.2-0.1,0.3-0.1,0.5-0.2
			l0.2,0.1c0.1,0.2,0.1,0.3,0.2,0.4h0.4c0.1-0.1,0.1-0.3,0.2-0.4l0.2-0.1c0.2,0.1,0.3,0.1,0.5,0.2l0.2-0.3c-0.1-0.1-0.1-0.3-0.2-0.4
			l0.1-0.2c0.2-0.1,0.3-0.1,0.5-0.2v-0.4C87.6,61.1,87.5,61,87.3,61z M86.6,61.3c0,0.3-0.2,0.5-0.5,0.6l0,0c-0.3,0-0.6-0.2-0.6-0.5
			c0,0,0,0,0,0l0,0c0-0.3,0.2-0.5,0.5-0.6l0,0C86.3,60.8,86.6,61,86.6,61.3L86.6,61.3z"/>
		
			<linearGradient id="SVGID_27_" gradientUnits="userSpaceOnUse" x1="86.4251" y1="1042.8864" x2="91.8169" y2="1049.3843" gradientTransform="matrix(1 0 0 1 0 -981.55)">
			<stop  offset="0" style="stop-color:#90AEE4"/>
			<stop  offset="0.17" style="stop-color:#A0BAE8"/>
			<stop  offset="0.46" style="stop-color:#B6CAED"/>
			<stop  offset="0.74" style="stop-color:#C3D4F0"/>
			<stop  offset="1" style="stop-color:#C7D7F1"/>
		</linearGradient>
		<polygon class="st42" points="85.9,63 88,65.5 90.3,65.5 90.3,64 87.4,60.3 86.3,61.9 		"/>
	</g>
	<g class="st22">
		<rect x="65.4" y="66.3" class="st4" width="8.3" height="8.3"/>
		<rect x="73.6" y="66.3" class="st43" width="8.3" height="8.3"/>
		<rect x="81.8" y="66.3" class="st44" width="8.3" height="8.3"/>
		<path class="st10" d="M77.8,69c-0.1,0-0.1,0-0.1,0.1l-1.1,0.6h-0.8c-0.1,0-0.1,0-0.1,0.1c0,0-0.1,0.1-0.1,0.1v1.3
			c0,0.1,0,0.1,0.1,0.1c0,0,0.1,0.1,0.1,0.1h0.8l1.1,0.6c0.1,0.1,0.2,0.1,0.3,0c0,0,0.1-0.1,0.1-0.1v-2.6c0-0.1,0-0.1-0.1-0.1
			C78,69.1,77.9,69,77.8,69z"/>
		<path class="st10" d="M78.9,71c0.2-0.4,0.1-0.8-0.2-1.1c0,0-0.1-0.1-0.2-0.1h-0.1c-0.1,0-0.1,0-0.1,0.1c-0.1,0.1-0.1,0.1,0,0.2
			c0,0,0,0,0,0l0.1,0.1l0.1,0.1c0.1,0,0.1,0.1,0.1,0.1c0.1,0.1,0.1,0.3,0,0.4c0,0.1-0.1,0.1-0.1,0.1L78.5,71c0,0-0.1,0-0.1,0.1
			c0,0,0,0,0,0c0,0,0,0.1-0.1,0.1c0,0.1,0,0.1,0.1,0.1c0,0,0.1,0.1,0.1,0.1h0C78.7,71.3,78.8,71.1,78.9,71z"/>
		<path class="st10" d="M78.9,69L78.9,69c-0.1,0-0.2,0-0.2,0.1c0,0-0.1,0.1-0.1,0.1c0,0.1,0.1,0.1,0.1,0.2c0.1,0.1,0.2,0.1,0.2,0.1
			c0.2,0.1,0.3,0.3,0.4,0.4c0.2,0.3,0.2,0.7,0,1.1c-0.1,0.2-0.2,0.3-0.4,0.4c-0.1,0.1-0.1,0.1-0.2,0.1c-0.1,0-0.1,0.1-0.1,0.2
			c0,0.1,0,0.1,0.1,0.1c0,0,0.1,0.1,0.2,0.1H79c0.3-0.1,0.5-0.3,0.7-0.6c0.4-0.5,0.4-1.2,0-1.8C79.4,69.4,79.2,69.2,78.9,69z"/>
		<path class="st10" d="M86.6,68.8h-1.7c-0.1,0-0.2,0.1-0.2,0.2l0,0v3c0,0.1,0.1,0.2,0.2,0.2c0,0,0,0,0,0H87c0.1,0,0.2-0.1,0.2-0.2
			l0,0v-2.5L86.6,68.8z M86.7,69.1l0.3,0.3h-0.2L86.7,69.1L86.7,69.1z M87,72L87,72L85,72.1c0,0-0.1,0-0.1-0.1c0,0,0,0,0,0l0,0v-3
			c0,0,0-0.1,0-0.1c0,0,0,0,0,0h1.6v0.5c0,0,0,0.1,0,0.1c0,0,0,0,0,0h0.5L87,72L87,72L87,72z M85.2,69.8h1.5c0.1,0,0.1,0,0.1,0.1
			s0,0.1-0.1,0.1h-1.5C85.1,69.9,85.1,69.9,85.2,69.8L85.2,69.8C85.1,69.8,85.1,69.8,85.2,69.8C85.2,69.8,85.2,69.8,85.2,69.8
			C85.2,69.8,85.2,69.8,85.2,69.8z M86.8,70.3C86.8,70.3,86.7,70.3,86.8,70.3C86.7,70.3,86.7,70.3,86.8,70.3l-1.5,0.1
			c-0.1,0-0.1,0-0.1-0.1s0-0.1,0.1-0.1l0,0L86.8,70.3C86.7,70.2,86.8,70.2,86.8,70.3L86.8,70.3L86.8,70.3z M86.8,70.7
			C86.8,70.7,86.8,70.7,86.8,70.7l-1.5,0.1c-0.1,0-0.1,0-0.1-0.1c0-0.1,0-0.1,0.1-0.1l0,0L86.8,70.7L86.8,70.7L86.8,70.7z
			 M86.8,71.1C86.8,71.1,86.7,71.2,86.8,71.1C86.7,71.2,86.7,71.2,86.8,71.1l-1.5,0.1c-0.1,0-0.1,0-0.1-0.1c0-0.1,0-0.1,0.1-0.1l0,0
			L86.8,71.1L86.8,71.1L86.8,71.1z"/>
		<path class="st10" d="M71.5,71.9v-2.6c0-0.1-0.1-0.1-0.1-0.1h-1.8c-0.1,0-0.1-0.1-0.1-0.1l0,0c0-0.1-0.1-0.1-0.2-0.1c0,0,0,0,0,0
			h-0.9c-0.1,0-0.1,0.1-0.2,0.1l0,0c0,0.1-0.1,0.1-0.1,0.1l0,0c-0.1,0-0.1,0.1-0.1,0.1v0.7h-0.4c0,0-0.1,0-0.1,0.1v0.1l0.4,1.7
			c0,0.1,0.1,0.1,0.1,0.1h3.4C71.5,72.1,71.5,71.9,71.5,71.9z M71.3,70.3v1.7l-0.4-1.8c0-0.1-0.1-0.1-0.1-0.1H68v-0.6h3.2L71.3,70.3
			L71.3,70.3L71.3,70.3z"/>
		
			<linearGradient id="SVGID_28_" gradientUnits="userSpaceOnUse" x1="76.6563" y1="1051.4128" x2="81.8042" y2="1057.4294" gradientTransform="matrix(1 0 0 1 0 -981.55)">
			<stop  offset="0.35" style="stop-color:#958AB1"/>
			<stop  offset="0.44" style="stop-color:#AAA0C3"/>
			<stop  offset="0.59" style="stop-color:#C7BEDC"/>
			<stop  offset="0.73" style="stop-color:#DCD4EE"/>
			<stop  offset="0.87" style="stop-color:#E9E1F9"/>
			<stop  offset="1" style="stop-color:#EDE5FD"/>
		</linearGradient>
		<polygon class="st45" points="75.7,71.2 78.3,74.7 81.8,74.7 81.8,73.1 77.8,69 		"/>
	</g>
	
		<linearGradient id="SVGID_29_" gradientUnits="userSpaceOnUse" x1="73.2344" y1="1048.2081" x2="107.9654" y2="1048.2081" gradientTransform="matrix(1 0 0 1 0 -981.55)">
		<stop  offset="0" style="stop-color:#FFFFFF;stop-opacity:0"/>
		<stop  offset="0.17" style="stop-color:#EEF3F4;stop-opacity:6.000000e-002"/>
		<stop  offset="0.4" style="stop-color:#BFD1D6;stop-opacity:0.25"/>
		<stop  offset="0.65" style="stop-color:#7299A4;stop-opacity:0.55"/>
		<stop  offset="0.93" style="stop-color:#074C5F;stop-opacity:0.97"/>
		<stop  offset="0.94" style="stop-color:#00475A"/>
	</linearGradient>
	<path class="st46" d="M95.4,50.5h10.8c0,0,2.1,0,1.8,1.8l-0.1,30.4H73.2"/>
	<rect x="6.2" y="48.7" class="st0" width="20.5" height="27.6"/>
	
		<linearGradient id="SVGID_30_" gradientUnits="userSpaceOnUse" x1="3.86" y1="1043.9133" x2="29.2839" y2="1043.9133" gradientTransform="matrix(1 0 0 1 0 -981.55)">
		<stop  offset="7.000000e-002" style="stop-color:#666666"/>
		<stop  offset="0.33" style="stop-color:#333333"/>
		<stop  offset="1" style="stop-color:#000000"/>
	</linearGradient>
	<path class="st47" d="M29.3,47c-0.1-0.8-0.6-1.3-1.3-1.3H5.2c-0.7,0-1.3,0.6-1.3,1.3l0,0v30.7c0,0.8,0.6,1.4,1.3,1.3c0,0,0,0,0.1,0
		h22.7c0.7,0,1.3-0.6,1.3-1.3l0,0V47L29.3,47z M26.7,76.2H6.4V48.7h20.3V76.2z"/>
	
		<linearGradient id="SVGID_31_" gradientUnits="userSpaceOnUse" x1="5.5757" y1="1043.9751" x2="29.3303" y2="1043.9751" gradientTransform="matrix(1 0 0 1 0 -981.55)">
		<stop  offset="0" style="stop-color:#FFFFFF;stop-opacity:0"/>
		<stop  offset="0.17" style="stop-color:#EEF3F4;stop-opacity:6.000000e-002"/>
		<stop  offset="0.4" style="stop-color:#BFD1D6;stop-opacity:0.25"/>
		<stop  offset="0.65" style="stop-color:#7299A4;stop-opacity:0.55"/>
		<stop  offset="0.93" style="stop-color:#074C5F;stop-opacity:0.97"/>
		<stop  offset="0.94" style="stop-color:#00475A"/>
	</linearGradient>
	<path class="st48" d="M20.7,45.7H28c0,0,1.4,0,1.3,1.9l0,30.2c0,0,0.1,1.1-1.3,1.3c-1.5-0.1-22.4,0-22.4,0"/>
	
		<linearGradient id="SVGID_32_" gradientUnits="userSpaceOnUse" x1="24.7595" y1="1049.5383" x2="36.7554" y2="1049.5383" gradientTransform="matrix(1 0 0 1 0 -981.55)">
		<stop  offset="7.000000e-002" style="stop-color:#666666"/>
		<stop  offset="0.33" style="stop-color:#333333"/>
		<stop  offset="1" style="stop-color:#000000"/>
	</linearGradient>
	<path class="st49" d="M36.8,56.9c0-1-0.8-1.7-1.7-1.7c0,0,0,0,0,0h-8.6c-0.9-0.1-1.6,0.7-1.7,1.6c0,0,0,0.1,0,0.1v22.2
		c0,1,0.8,1.7,1.7,1.7c0,0,0,0,0,0h8.6c0.9,0.1,1.6-0.7,1.7-1.6c0,0,0-0.1,0-0.1V56.9z M32,57.4c0,0.2-0.1,0.3-0.3,0.3h-1.8
		c-0.1,0-0.2-0.1-0.3-0.3l0,0c0-0.2,0.1-0.3,0.3-0.3h1.8C31.9,57.1,32,57.2,32,57.4L32,57.4L32,57.4z M35.9,77.2H25.7V58.8h10.2
		V77.2L35.9,77.2z"/>
	<rect x="25.8" y="58.8" class="st0" width="10.2" height="18.4"/>
	
		<linearGradient id="SVGID_33_" gradientUnits="userSpaceOnUse" x1="24.7457" y1="1047.6976" x2="36.7623" y2="1047.6976" gradientTransform="matrix(1 0 0 1 0 -981.55)">
		<stop  offset="0" style="stop-color:#FFFFFF;stop-opacity:0"/>
		<stop  offset="0.17" style="stop-color:#EEF3F4;stop-opacity:6.000000e-002"/>
		<stop  offset="0.4" style="stop-color:#BFD1D6;stop-opacity:0.25"/>
		<stop  offset="0.65" style="stop-color:#7299A4;stop-opacity:0.55"/>
		<stop  offset="0.93" style="stop-color:#074C5F;stop-opacity:0.97"/>
		<stop  offset="0.94" style="stop-color:#00475A"/>
	</linearGradient>
	<path class="st50" d="M32.4,55.2h2.8c0.7,0.1,1.3,0.6,1.5,1.3l0.1,19.9c0,0.4-0.3,0.8-0.7,0.8c0,0,0,0,0,0c-0.8-0.1-11.4,0-11.4,0"
		/>
	<g class="st22">
		<rect x="9.2" y="51" class="st44" width="3.7" height="3.7"/>
		<rect x="12.9" y="51" class="st5" width="3.7" height="3.7"/>
		<rect x="16.6" y="51" class="st41" width="3.7" height="3.7"/>
		<rect x="20.3" y="51" class="st6" width="3.7" height="3.7"/>
		<path class="st10" d="M15.4,52.7c-0.3-0.3-0.8-0.3-1.2,0L14,52.5c0.4-0.4,1-0.4,1.5,0L15.4,52.7L15.4,52.7z M15.2,52.8l-0.1,0.1
			c-0.2-0.2-0.6-0.3-0.8,0c0,0,0,0,0,0l-0.1-0.1C14.5,52.4,15,52.4,15.2,52.8C15.3,52.7,15.3,52.8,15.2,52.8L15.2,52.8L15.2,52.8z
			 M15.1,52.9l-0.1,0.1c-0.1-0.1-0.3-0.1-0.4,0c0,0,0,0,0,0l0,0l-0.1-0.1C14.6,52.8,14.9,52.8,15.1,52.9L15.1,52.9z M14.7,53.1
			c0.1,0,0.2,0.1,0.1,0.2c0,0.1-0.1,0.1-0.1,0.2c-0.1,0-0.2-0.1-0.2-0.2c0,0,0,0,0,0C14.5,53.2,14.6,53.1,14.7,53.1L14.7,53.1
			L14.7,53.1z"/>
		<g id="_350._Repeat-2">
			<path class="st10" d="M21.9,53.2c-0.1-0.1-0.2-0.2-0.2-0.4c0-0.2,0.1-0.4,0.4-0.5v-0.1c-0.3,0.1-0.5,0.3-0.5,0.6
				c0,0.2,0.1,0.3,0.2,0.4C21.9,53.4,21.9,53.2,21.9,53.2z M22.5,52.3c-0.1-0.1-0.2,0-0.1,0.1c0.1,0.1,0.2,0.2,0.2,0.4
				c0,0.2-0.1,0.4-0.4,0.5v0.1c0.3-0.1,0.5-0.3,0.5-0.6C22.8,52.6,22.7,52.4,22.5,52.3C22.5,52.3,22.5,52.3,22.5,52.3z M22.1,52.5
				l0.2-0.1v-0.1l0,0l-0.2-0.1h0L22.1,52.5L22.1,52.5L22.1,52.5z M22.2,53.2l-0.2,0.1h0v0.1l0,0l0.2,0.1h0.1L22.2,53.2L22.2,53.2
				L22.2,53.2z"/>
		</g>
		<ellipse class="st10" cx="11.1" cy="52" rx="0.2" ry="0.2"/>
		<path class="st10" d="M11.5,52.5c0-0.1-0.1-0.1-0.1-0.2l0,0c-0.1-0.1-0.3-0.1-0.4,0h-0.2c0-0.1-0.1-0.1-0.1-0.2l0,0v-0.2l0,0V52
			c-0.1,0-0.1,0-0.1,0.1l0,0c0,0.1,0.1,0.1,0.1,0.2s0.1,0,0.1,0.1s0.2,0.1,0.2,0.1v1.3c0,0.1,0.1,0.1,0.1,0.1c0.1,0,0.1-0.1,0.1-0.1
			v-0.6h0.1v0.6c0,0,0,0.1,0.1,0.1l0,0c0,0,0.1,0,0.1-0.1c0,0,0,0,0,0l0,0v-0.7l0.2-0.2c0-0.1,0.1-0.1,0.1-0.1
			C11.6,52.7,11.5,52.6,11.5,52.5z M11.4,52.6L11.4,52.6l-0.1,0.1v-0.3C11.4,52.5,11.4,52.5,11.4,52.6L11.4,52.6L11.4,52.6z
			 M11.4,52.6L11.4,52.6z"/>
		<path class="st10" d="M18.6,53.1h-0.3v-0.2h-0.7v0.5c0,0.1,0,0.1,0.1,0.1h1.6c0,0,0.1,0,0.1-0.1c0,0,0,0,0,0l0,0v-0.5h-0.7
			L18.6,53.1C18.6,53.1,18.6,53.1,18.6,53.1z"/>
		<path class="st10" d="M19.2,52.3h-0.5v-0.2h-0.5v0.2h-0.5c0,0-0.1,0-0.1,0.1c0,0,0,0,0,0l0,0v0.4h1.7L19.2,52.3
			C19.4,52.3,19.3,52.3,19.2,52.3L19.2,52.3L19.2,52.3z M18.2,52.3v-0.1h0.4v0.1H18.2z"/>
		<rect x="18.3" y="52.9" class="st10" width="0.2" height="0.1"/>
		
			<linearGradient id="SVGID_34_" gradientUnits="userSpaceOnUse" x1="11.0875" y1="1034.8962" x2="13.1574" y2="1037.406" gradientTransform="matrix(1 0 0 1 0 -981.55)">
			<stop  offset="0" style="stop-color:#90AEE4"/>
			<stop  offset="0.17" style="stop-color:#A0BAE8"/>
			<stop  offset="0.46" style="stop-color:#B6CAED"/>
			<stop  offset="0.74" style="stop-color:#C3D4F0"/>
			<stop  offset="1" style="stop-color:#C7D7F1"/>
		</linearGradient>
		<polygon class="st51" points="10.8,53.8 11.6,54.7 12.8,54.7 12.5,54.3 11.3,53.1 11.2,53.8 		"/>
		
			<linearGradient id="SVGID_35_" gradientUnits="userSpaceOnUse" x1="15.0118" y1="1034.5474" x2="17.2177" y2="1037.2104" gradientTransform="matrix(1 0 0 1 0 -981.55)">
			<stop  offset="0" style="stop-color:#90AEE4"/>
			<stop  offset="0.17" style="stop-color:#A0BAE8"/>
			<stop  offset="0.46" style="stop-color:#B6CAED"/>
			<stop  offset="0.74" style="stop-color:#C3D4F0"/>
			<stop  offset="1" style="stop-color:#C7D7F1"/>
		</linearGradient>
		<polygon class="st52" points="14.5,53.4 15.6,54.7 16.6,54.7 16.6,54 15.5,52.5 14.8,53.1 		"/>
		
			<linearGradient id="SVGID_36_" gradientUnits="userSpaceOnUse" x1="21.925" y1="1034.5258" x2="23.8947" y2="1036.8308" gradientTransform="matrix(1 0 0 1 0 -981.55)">
			<stop  offset="3.000000e-002" style="stop-color:#7D333A"/>
			<stop  offset="0.25" style="stop-color:#80363C"/>
			<stop  offset="0.42" style="stop-color:#893F43"/>
			<stop  offset="0.57" style="stop-color:#994D4F"/>
			<stop  offset="0.71" style="stop-color:#B06260"/>
			<stop  offset="0.83" style="stop-color:#CD7D76"/>
			<stop  offset="0.96" style="stop-color:#F09E91"/>
			<stop  offset="1" style="stop-color:#FFAC9C"/>
		</linearGradient>
		<path class="st53" d="M21.7,53.2c-0.1-0.1,1.2,1.5,1.2,1.5H24l-0.5-0.5l-0.9-1C22.4,53.5,22,53.5,21.7,53.2
			C21.7,53.3,21.7,53.2,21.7,53.2z"/>
	</g>
	<g class="st22">
		<rect x="27.3" y="62.7" class="st44" width="1.3" height="1.4"/>
		<rect x="28.7" y="62.7" class="st5" width="1.3" height="1.4"/>
		<rect x="30" y="62.7" class="st41" width="1.3" height="1.4"/>
		<rect x="31.4" y="62.7" class="st6" width="1.3" height="1.4"/>
		<path class="st10" d="M29.6,63.3c-0.1-0.1-0.3-0.1-0.5,0L29,63.3C29.3,63.2,29.5,63.2,29.6,63.3C29.6,63.3,29.6,63.3,29.6,63.3z
			 M29.6,63.3L29.6,63.3c-0.1-0.1-0.3,0-0.4,0.1v-0.1C29.3,63.2,29.4,63.2,29.6,63.3C29.5,63.3,29.6,63.3,29.6,63.3L29.6,63.3z
			 M29.5,63.4L29.5,63.4c-0.1,0-0.2,0-0.2,0c0,0,0,0,0,0h-0.1C29.3,63.4,29.4,63.4,29.5,63.4L29.5,63.4z M29.3,63.5
			C29.4,63.5,29.4,63.5,29.3,63.5L29.3,63.5c0.1,0.1,0.1,0.1,0,0.1S29.3,63.7,29.3,63.5C29.3,63.6,29.3,63.5,29.3,63.5
			C29.3,63.5,29.3,63.5,29.3,63.5L29.3,63.5z"/>
		<g id="_350._Repeat-3">
			<path class="st10" d="M32,63.5c0-0.1-0.1-0.1-0.1-0.2c0-0.1,0.1-0.1,0.1-0.2v-0.1c-0.1,0-0.2,0.1-0.2,0.2
				C31.9,63.5,31.9,63.5,32,63.5C32,63.5,32,63.5,32,63.5z M32.3,63.2L32.3,63.2c0,0.1,0.1,0.1,0.1,0.1c0,0.1,0,0.2-0.1,0.2v0.1
				c0.1,0,0.2-0.1,0.2-0.3L32.3,63.2L32.3,63.2z M32.1,63.3L32.1,63.3L32.1,63.3L32.1,63.3L32.1,63.3L32.1,63.3L32.1,63.3z
				 M32.1,63.5L32.1,63.5v0.1l0,0V63.5L32.1,63.5z"/>
		</g>
		<ellipse class="st10" cx="28" cy="63.1" rx="0.1" ry="0.1"/>
		<path class="st10" d="M28.2,63.3L28.2,63.3l-0.3-0.1l0,0l0,0v-0.1l0,0v0.1H28v0.5c0,0,0,0.1,0.1,0.1s0.1,0,0.1-0.1v-0.2l0,0v0.3
			c0,0,0,0.1,0,0.1c0,0,0,0,0,0l0,0c0,0,0.1,0,0.1-0.1c0,0,0,0,0,0l0,0v-0.3l0.1-0.1C28.2,63.3,28.2,63.3,28.2,63.3L28.2,63.3
			L28.2,63.3z M28.1,63.3L28.1,63.3L28.1,63.3z M28.1,63.3L28.1,63.3z"/>
		<path class="st10" d="M30.8,63.5h-0.1v-0.1h-0.3v0.2H31v-0.2L30.8,63.5L30.8,63.5L30.8,63.5z"/>
		<path class="st10" d="M31,63.2h-0.2l0,0h-0.2l0,0h-0.2v0.1h0.6L31,63.2L31,63.2z M30.6,63.2L30.6,63.2h0.1l0,0H30.6z"/>
		<rect x="30.7" y="63.4" class="st10" width="0.1" height="0.1"/>
		
			<linearGradient id="SVGID_37_" gradientUnits="userSpaceOnUse" x1="28.0199" y1="1045.1396" x2="28.7845" y2="1046.0701" gradientTransform="matrix(1 0 0 1 0 -981.55)">
			<stop  offset="0" style="stop-color:#90AEE4"/>
			<stop  offset="0.17" style="stop-color:#A0BAE8"/>
			<stop  offset="0.46" style="stop-color:#B6CAED"/>
			<stop  offset="0.74" style="stop-color:#C3D4F0"/>
			<stop  offset="1" style="stop-color:#C7D7F1"/>
		</linearGradient>
		<polygon class="st54" points="27.9,63.8 28.2,64.1 28.7,64.1 28.6,64 28.1,63.5 28.1,63.8 		"/>
		
			<linearGradient id="SVGID_38_" gradientUnits="userSpaceOnUse" x1="29.4736" y1="1045.0175" x2="30.2797" y2="1045.9819" gradientTransform="matrix(1 0 0 1 0 -981.55)">
			<stop  offset="0" style="stop-color:#90AEE4"/>
			<stop  offset="0.17" style="stop-color:#A0BAE8"/>
			<stop  offset="0.46" style="stop-color:#B6CAED"/>
			<stop  offset="0.74" style="stop-color:#C3D4F0"/>
			<stop  offset="1" style="stop-color:#C7D7F1"/>
		</linearGradient>
		<polygon class="st55" points="29.3,63.6 29.7,64.1 30,64.1 30,63.9 29.6,63.3 29.4,63.5 		"/>
		
			<linearGradient id="SVGID_39_" gradientUnits="userSpaceOnUse" x1="31.989" y1="1045.0261" x2="32.7182" y2="1045.8768" gradientTransform="matrix(1 0 0 1 0 -981.55)">
			<stop  offset="3.000000e-002" style="stop-color:#7D333A"/>
			<stop  offset="0.25" style="stop-color:#80363C"/>
			<stop  offset="0.42" style="stop-color:#893F43"/>
			<stop  offset="0.57" style="stop-color:#994D4F"/>
			<stop  offset="0.71" style="stop-color:#B06260"/>
			<stop  offset="0.83" style="stop-color:#CD7D76"/>
			<stop  offset="0.96" style="stop-color:#F09E91"/>
			<stop  offset="1" style="stop-color:#FFAC9C"/>
		</linearGradient>
		<path class="st56" d="M31.9,63.5c0.1,0.2,0.3,0.4,0.4,0.6h0.4l-0.2-0.2l-0.4-0.4C32.3,63.5,32.2,63.7,31.9,63.5z"/>
	</g>
	<g class="st22">
		<rect x="12.9" y="55.3" class="st6" width="3.7" height="3.7"/>
		<path class="st10" d="M15.4,57c-0.4-0.3-0.9-0.3-1.2,0L14,56.9c0.4-0.4,1-0.4,1.4,0c0,0,0,0,0,0L15.4,57L15.4,57L15.4,57z
			 M15.3,57.1l-0.1,0.1c-0.2-0.2-0.6-0.3-0.8,0c0,0,0,0,0,0l-0.1-0.1C14.6,56.8,15,56.8,15.3,57.1L15.3,57.1z M15.1,57.2l-0.1,0.1
			c-0.1-0.1-0.3-0.1-0.4,0c0,0,0,0,0,0l-0.2-0.1C14.6,57.1,14.8,57.1,15.1,57.2L15.1,57.2L15.1,57.2z M14.8,57.4
			c0.1,0,0.2,0.1,0.1,0.2c0,0.1-0.1,0.1-0.1,0.2c-0.1,0-0.2-0.1-0.2-0.2c0,0,0,0,0,0C14.5,57.5,14.7,57.4,14.8,57.4L14.8,57.4
			L14.8,57.4z"/>
		<rect x="9.2" y="55.3" class="st23" width="3.7" height="3.7"/>
		<ellipse class="st10" cx="11.1" cy="56.4" rx="0.2" ry="0.2"/>
		<path class="st10" d="M11.5,56.8c-0.1-0.1-0.1-0.1-0.1-0.2l0,0c-0.1-0.1-0.3-0.1-0.4,0h-0.2c0-0.1-0.1-0.1-0.1-0.2l0,0v-0.1l0,0
			v0.1c-0.1,0-0.1,0-0.1,0.1l0,0c0,0.1,0.1,0.1,0.1,0.2s0.1,0.1,0.1,0.1c0,0.1,0.2,0.1,0.2,0.1v1.3c0,0.1,0.1,0.1,0.1,0.1
			c0.1,0,0.1-0.1,0.1-0.1v-0.6l0,0c0,0,0.1,0,0.1,0.1c0,0,0,0,0,0v0.6c0,0,0,0.1,0.1,0.1l0,0c0,0,0.1,0,0.1-0.1c0,0,0,0,0,0l0,0
			v-0.7l0.2-0.2c0,0,0.1-0.1,0.1-0.1C11.6,57,11.5,56.9,11.5,56.8z M11.4,57L11.4,57l-0.1,0.1v-0.3C11.3,56.8,11.4,56.9,11.4,57
			L11.4,57L11.4,57z M11.4,57L11.4,57z"/>
		
			<linearGradient id="SVGID_40_" gradientUnits="userSpaceOnUse" x1="11.1023" y1="1039.2478" x2="13.1779" y2="1041.7557" gradientTransform="matrix(1 0 0 1 0 -981.55)">
			<stop  offset="0" style="stop-color:#90AEE4"/>
			<stop  offset="0.17" style="stop-color:#A0BAE8"/>
			<stop  offset="0.46" style="stop-color:#B6CAED"/>
			<stop  offset="0.74" style="stop-color:#C3D4F0"/>
			<stop  offset="1" style="stop-color:#C7D7F1"/>
		</linearGradient>
		<polygon class="st57" points="10.8,58.1 11.6,59.1 12.9,59.1 12.5,58.7 11.3,57.4 11.2,58.1 		"/>
		
			<linearGradient id="SVGID_41_" gradientUnits="userSpaceOnUse" x1="15.0382" y1="1038.8939" x2="17.2442" y2="1041.557" gradientTransform="matrix(1 0 0 1 0 -981.55)">
			<stop  offset="0" style="stop-color:#90AEE4"/>
			<stop  offset="0.17" style="stop-color:#A0BAE8"/>
			<stop  offset="0.46" style="stop-color:#B6CAED"/>
			<stop  offset="0.74" style="stop-color:#C3D4F0"/>
			<stop  offset="1" style="stop-color:#C7D7F1"/>
		</linearGradient>
		<polygon class="st58" points="14.6,57.7 15.6,59.1 16.6,59.1 16.6,58.4 15.5,56.9 14.8,57.4 		"/>
		<rect x="16.6" y="55.3" class="st2" width="3.7" height="3.7"/>
		<g id="_350._Repeat-4">
			<path class="st10" d="M18.2,57.6c-0.1-0.1-0.2-0.2-0.2-0.4c0-0.2,0.1-0.4,0.4-0.5v-0.1c-0.3,0.1-0.5,0.3-0.5,0.6
				C17.9,57.4,18,57.5,18.2,57.6C18.2,57.8,18.2,57.6,18.2,57.6z M18.9,56.7c-0.1-0.1-0.2,0.1-0.1,0.1c0.1,0.1,0.2,0.2,0.2,0.4
				c0,0.2-0.1,0.4-0.4,0.5v0.1c0.3,0,0.5-0.3,0.5-0.6C19.1,57,19,56.8,18.9,56.7L18.9,56.7L18.9,56.7z M18.4,56.8l0.2-0.1v-0.1l0,0
				l-0.2-0.1h-0.1L18.4,56.8L18.4,56.8L18.4,56.8z M18.5,57.6l-0.2,0.1v0.1l0,0l0.2,0.1h0.1L18.5,57.6L18.5,57.6L18.5,57.6z"/>
		</g>
		
			<linearGradient id="SVGID_42_" gradientUnits="userSpaceOnUse" x1="18.2432" y1="1038.8553" x2="20.22" y2="1041.1677" gradientTransform="matrix(1 0 0 1 0 -981.55)">
			<stop  offset="3.000000e-002" style="stop-color:#7D333A"/>
			<stop  offset="0.25" style="stop-color:#80363C"/>
			<stop  offset="0.42" style="stop-color:#893F43"/>
			<stop  offset="0.57" style="stop-color:#994D4F"/>
			<stop  offset="0.71" style="stop-color:#B06260"/>
			<stop  offset="0.83" style="stop-color:#CD7D76"/>
			<stop  offset="0.96" style="stop-color:#F09E91"/>
			<stop  offset="1" style="stop-color:#FFAC9C"/>
		</linearGradient>
		<path class="st59" d="M18,57.6c-0.1-0.1,1.2,1.5,1.2,1.5h1.2l-0.5-0.4l-0.9-1C18.9,57.5,18.7,58.1,18,57.6z"/>
	</g>
	<g class="st22">
		<rect x="27.4" y="60.5" class="st44" width="1.8" height="1.8"/>
		<rect x="29.2" y="60.5" class="st43" width="1.8" height="1.8"/>
		<rect x="30.9" y="60.5" class="st60" width="1.8" height="1.8"/>
		<path class="st10" d="M31.9,61.1L31.9,61.1l-0.2,0.1h-0.2v0.3h0.2l0.2,0.1h0.1V61.1L31.9,61.1z"/>
		<path class="st10" d="M32.1,61.5v-0.3L32,61.2l0,0v0.1l0,0C32,61.3,32,61.4,32.1,61.5z"/>
		<path class="st10" d="M32.1,61.1L32.1,61.1c0.1,0,0.1,0.1,0.1,0.1c0.1,0.1,0.1,0.2,0,0.3c0,0,0,0.1,0,0.1c0,0,0,0,0,0h-0.1v0.1
			l0,0c0.1,0,0.1-0.1,0.2-0.1c0.1-0.1,0.1-0.3,0-0.4L32.1,61.1L32.1,61.1z"/>
		<path class="st10" d="M30.5,61.7v-0.6h-0.4c0,0,0-0.1,0-0.1c0,0,0,0,0,0h-0.2c0,0-0.1,0-0.1,0.1c0,0,0,0,0,0l0,0v0.2h-0.1v0.1
			l0.1,0.4L30.5,61.7L30.5,61.7z M30.5,61.3v0.4V61.3h-0.7v-0.1h0.7L30.5,61.3L30.5,61.3L30.5,61.3z"/>
		
			<linearGradient id="SVGID_43_" gradientUnits="userSpaceOnUse" x1="28.2779" y1="1043.0348" x2="29.3074" y2="1044.2773" gradientTransform="matrix(1 0 0 1 0 -981.55)">
			<stop  offset="0" style="stop-color:#90AEE4"/>
			<stop  offset="0.17" style="stop-color:#A0BAE8"/>
			<stop  offset="0.46" style="stop-color:#B6CAED"/>
			<stop  offset="0.74" style="stop-color:#C3D4F0"/>
			<stop  offset="1" style="stop-color:#C7D7F1"/>
		</linearGradient>
		<polygon class="st61" points="28.1,61.6 28.5,62.1 29.2,62.1 29,62 28.5,61.4 28.5,61.6 28.5,61.6 28.2,61.6 		"/>
		
			<linearGradient id="SVGID_44_" gradientUnits="userSpaceOnUse" x1="31.6116" y1="1042.7889" x2="32.7263" y2="1044.0918" gradientTransform="matrix(1 0 0 1 0 -981.55)">
			<stop  offset="0.35" style="stop-color:#958AB1"/>
			<stop  offset="0.44" style="stop-color:#AAA0C3"/>
			<stop  offset="0.59" style="stop-color:#C7BEDC"/>
			<stop  offset="0.73" style="stop-color:#DCD4EE"/>
			<stop  offset="0.87" style="stop-color:#E9E1F9"/>
			<stop  offset="1" style="stop-color:#EDE5FD"/>
		</linearGradient>
		<polygon class="st62" points="31.4,61.6 32,62.3 32.7,62.3 32.7,61.9 31.9,61.1 		"/>
		
			<linearGradient id="SVGID_45_" gradientUnits="userSpaceOnUse" x1="29.9433" y1="1043.0747" x2="30.8454" y2="1044.1261" gradientTransform="matrix(1 0 0 1 0 -981.55)">
			<stop  offset="5.000000e-002" style="stop-color:#958AB1"/>
			<stop  offset="0.18" style="stop-color:#AAA0C3"/>
			<stop  offset="0.39" style="stop-color:#C7BEDC"/>
			<stop  offset="0.61" style="stop-color:#DCD4EE"/>
			<stop  offset="0.81" style="stop-color:#E9E1F9"/>
			<stop  offset="1" style="stop-color:#EDE5FD"/>
		</linearGradient>
		<polygon class="st63" points="29.8,61.7 30.2,62.3 30.9,62.3 30.8,62.1 30.5,61.7 		"/>
		<path class="st10" d="M28.5,61.1H28c-0.1,0-0.1,0-0.1,0.1L28.5,61.1C28.5,61.1,28.5,61.1,28.5,61.1L28.5,61.1z M28.3,61.1
			L28.3,61.1l-0.2,0.1v-0.1L28.3,61.1 M28.3,61.1h-0.2v0.1h0.2L28.3,61.1L28.3,61.1L28.3,61.1z M28.5,61.3H28c0,0-0.1,0-0.1,0.1
			c0,0,0,0,0,0l0,0l0.1,0.4c0,0,0,0.1,0,0.1c0,0,0,0,0,0h0.3c0,0,0.1,0,0.1,0c0,0,0,0,0,0L28.5,61.3L28.5,61.3L28.5,61.3z
			 M28.2,61.6L28.2,61.6l-0.1-0.3h0.1L28.2,61.6L28.2,61.6L28.2,61.6z M28.3,61.6L28.3,61.6l-0.1-0.3h0.1L28.3,61.6L28.3,61.6
			L28.3,61.6z M28.4,61.6L28.4,61.6l-0.1-0.3h0.1L28.4,61.6L28.4,61.6z"/>
		<rect x="32.7" y="60.5" class="st23" width="1.8" height="1.8"/>
		<ellipse class="st10" cx="33.7" cy="61" rx="0.1" ry="0.1"/>
		<path class="st10" d="M33.8,61.2c0-0.1-0.1-0.1-0.1-0.1h-0.2v-0.1l0,0v-0.1h-0.1V61c0,0,0,0.1,0,0.1c0,0,0,0,0,0h0.1v0.6
			c0,0,0.1,0.1,0.1,0l0,0v-0.3l0,0v0.3c0,0,0,0.1,0,0.1c0,0,0,0,0,0l0,0c0,0,0.1,0,0.1-0.1c0,0,0,0,0,0l0,0v-0.3
			c0.1,0,0.1-0.1,0.1-0.1L33.8,61.2C33.8,61.2,33.8,61.2,33.8,61.2z M33.8,61.3L33.8,61.3C33.8,61.2,33.8,61.2,33.8,61.3L33.8,61.3z
			 M33.8,61.3L33.8,61.3z"/>
		
			<linearGradient id="SVGID_46_" gradientUnits="userSpaceOnUse" x1="33.6572" y1="1043.1788" x2="34.6596" y2="1044.3904" gradientTransform="matrix(1 0 0 1 0 -981.55)">
			<stop  offset="0" style="stop-color:#90AEE4"/>
			<stop  offset="0.17" style="stop-color:#A0BAE8"/>
			<stop  offset="0.46" style="stop-color:#B6CAED"/>
			<stop  offset="0.74" style="stop-color:#C3D4F0"/>
			<stop  offset="1" style="stop-color:#C7D7F1"/>
		</linearGradient>
		<polygon class="st64" points="33.6,61.9 33.9,62.3 34.5,62.3 34.4,62.1 33.8,61.5 33.7,61.9 		"/>
	</g>
	<rect x="90.2" y="57.1" class="st44" width="8.3" height="8.5"/>
	<polygon class="st10" points="95.1,61.4 93.4,61.4 93.4,61.6 93.6,61.6 93.6,63 94.8,63 94.8,61.6 95.1,61.6 	"/>
	<ellipse class="st10" cx="92.5" cy="60" rx="0.3" ry="0.3"/>
	<path class="st10" d="M96.6,61.1L96.6,61.1c-0.2,0.3-0.3,0.6-0.4,1h-0.1c-0.2,0-0.4,0.1-0.5,0.2l0,0l0.1,0.1l0,0
		c0.1-0.1,0.1-0.1,0.2-0.1v0.6l-0.2,0.1l0.1,0.1l0.2-0.1l0.1,0.1l0.1-0.1L96,62.8v-0.6h0.2v-0.1C96.4,61.8,96.5,61.4,96.6,61.1
		L96.6,61.1L96.6,61.1z"/>
	<path class="st10" d="M93,60.9c-0.1,0.1-0.3,0.1-0.4,0c0-0.1,0-0.1,0.1-0.2c0-0.2-0.1-0.3-0.2-0.4l0,0c-0.1,0-0.2,0-0.2,0.1h-0.1
		C92.1,60.6,92,60.8,92,61c-0.1,0.3,0,0.6,0.1,0.8v0.9c0,0.1,0.1,0.1,0.2,0.1c0.1,0,0.1-0.1,0.1-0.1v-1h0.1c0-0.1,0.1-0.1,0.1-0.1
		v-0.4c0.2,0.1,0.4,0,0.6-0.1C93.4,61.1,93.2,60.8,93,60.9z"/>
	<path class="st10" d="M96.2,61.7c0-0.2,0.1-0.4,0.2-0.6c0.1-0.1,0.1-0.3,0-0.4c0,0,0,0,0,0l0,0c-0.1-0.1-0.3-0.1-0.4,0c0,0,0,0,0,0
		l-0.1,0.1c-0.2,0-0.4,0-0.6-0.1h-0.1l-0.6-0.6l-0.1,0.1l0.6,0.6c0,0,0,0.1,0,0.2c0,0,0,0,0,0l0,0c0.2,0.1,0.4,0.1,0.6,0.1
		c-0.1,0.2-0.1,0.4-0.1,0.6c-0.4,0.2-0.7,0.6-0.8,1.1c-0.1,0.3,0.4,0.3,0.4,0c0-0.4,0.3-0.7,0.6-0.7C96.1,62,96.2,61.9,96.2,61.7
		L96.2,61.7L96.2,61.7z"/>
	<ellipse class="st10" cx="96.2" cy="60.3" rx="0.3" ry="0.3"/>
	
		<linearGradient id="SVGID_47_" gradientUnits="userSpaceOnUse" x1="93.8599" y1="1043.3628" x2="99.4211" y2="1050.0717" gradientTransform="matrix(1 0 0 1 0 -981.55)">
		<stop  offset="0" style="stop-color:#90AEE4"/>
		<stop  offset="8.000000e-002" style="stop-color:#A2BBE8"/>
		<stop  offset="0.18" style="stop-color:#B3C8EC"/>
		<stop  offset="0.31" style="stop-color:#BED1EF"/>
		<stop  offset="0.49" style="stop-color:#C5D6F1"/>
		<stop  offset="1" style="stop-color:#C7D7F1"/>
	</linearGradient>
	<polygon class="st65" points="92.2,63 95.4,65.5 98.5,65.5 98.6,64.4 96.2,63 	"/>
</g>
</svg>
