<svg id="Слой_1" data-name="Слой 1" xmlns="http://www.w3.org/2000/svg" viewBox="0 0 100 68.94"><title>sbo</title><g id="Слой_2" data-name="Слой 2"><path d="M1.5,56.12c0-5,2.74-8.15,7.78-8.15a10.64,10.64,0,0,1,4.5.88l-0.69,1.84A10.22,10.22,0,0,0,9.28,50c-3,0-5.41,1.68-5.41,5.91S6.38,62,9.73,62a10.84,10.84,0,0,0,3.51-.56l0.53,1.84a10.54,10.54,0,0,1-4.42.8c-5.18.08-7.85-3.11-7.85-8M23.91,58c0-1.92-.76-3.43-2.9-3.43a7.27,7.27,0,0,0-3.51,1l-0.08,1.36c0,3.59,1.07,5.27,3.2,5.27,2.52,0,3.28-2.16,3.28-4.23m-8.61-.8c0-2.48.46-6.39,1.83-7.67,1.14-1.12,4.35-1.92,8-2.64l0.38,2.08c-3.28.56-6.18,1.12-6.86,1.84a6.52,6.52,0,0,0-1.07,3.11,8.12,8.12,0,0,1,4-1.12c2.82,0,4.57,1.44,4.57,5.11,0,4.31-2.44,6.23-5.64,6.23S15.3,62,15.3,57.16m20.36-.4c0-2.16-.76-3.51-2.44-3.51-1.52,0-2.67,1.2-2.82,3.51h5.26ZM28,58c0-4.79,2.36-6.55,5.34-6.55,3.28,0,4.65,2.16,4.65,6.07v0.8h-7.7c0,3.19,1.75,3.83,3.81,3.83a9,9,0,0,0,3.2-.56l0.38,1.76a11.54,11.54,0,0,1-4,.64c-3.51.16-5.72-1.28-5.72-6" style="fill:#299e30"/><path d="M48.23,57.64c0-2.16-.76-4.15-3-4.15a5.65,5.65,0,0,0-2.74.88V62a9.65,9.65,0,0,0,2,.24c2.67,0,3.74-1.92,3.74-4.63m-8-5.83h2.21v1a5.3,5.3,0,0,1,3.35-1.28c2.74,0,4.65,2,4.65,6,0,5-2.82,6.63-6,6.63a14.52,14.52,0,0,1-2.06-.16v4.79H40.15V51.81h0.08ZM61,58c0-1.92-.76-3.43-2.9-3.43a7.27,7.27,0,0,0-3.51,1l-0.08,1.36c0,3.59,1.07,5.27,3.2,5.27C60.36,62.19,61,60,61,58m-8.61-.8c0-2.48.46-6.39,1.83-7.67,1.14-1.12,4.35-1.92,8-2.64l0.38,2.08c-3.28.56-6.18,1.12-6.86,1.84a6.52,6.52,0,0,0-1.07,3.11,8.12,8.12,0,0,1,4-1.12c2.82,0,4.57,1.44,4.57,5.11,0,4.31-2.44,6.23-5.64,6.23S52.43,62,52.43,57.16m19.52,4v-2.8l-2.52.08c-1.6.08-2.52,0.72-2.52,2a1.72,1.72,0,0,0,2,1.76,5.23,5.23,0,0,0,3-1m-7.24-.56c0-3,2.59-3.67,4.65-3.67l2.59-.08V55.56c0-1.68-.84-2.08-2.52-2.08a10.48,10.48,0,0,0-3.28.56l-0.46-1.76a10,10,0,0,1,4.12-.8c2.82,0,4.35,1,4.35,3.51v6.23a1.08,1.08,0,0,0,1.22,1l-0.15,1.76L74.77,64c-1.22,0-2.36-.4-2.59-1.44a6,6,0,0,1-3.81,1.52,3.32,3.32,0,0,1-3.66-3.51" style="fill:#299e30"/><path d="M77.28,51.81h2.29v5.11h5.49V51.81h2.29V63.87H85.06V58.76H79.57v5.11H77.28V51.81Zm18.45,10-3.35-4.15L97,51.73h2.52l-4.8,5.75,2.36,2.64a6.41,6.41,0,0,0,2.9,2.16L99.62,64c-1,0-2.29-.24-3.89-2.24m-5.64-10h2.29V63.95H90.09V51.81Z" style="fill:#299e30"/><path d="M39.31,13.58L59.82,1.36A28.27,28.27,0,0,0,57.15,0L39.31,10.54,31.39,5.83c-0.53.64-1.07,1.36-1.6,2.08ZM64.09,4.71a21.22,21.22,0,0,0-2-1.76L39.31,16.53l-10.9-6.47c-0.38.72-.76,1.52-1.14,2.32l12,7.11ZM39.31,22.44L26.43,14.78a26.45,26.45,0,0,0-.61,2.64l13.49,8L67.37,8.79a20.37,20.37,0,0,0-1.52-2.08Zm31.79-.72c0,13-10.22,23.56-22.87,23.56S25.36,34.74,25.36,21.72a11.21,11.21,0,0,1,.08-1.6l13.8,8.23L68.51,10.94a23.6,23.6,0,0,1,2.59,10.78" style="fill:#299e30"/></g></svg>