<?xml version="1.0" encoding="utf-8"?>
<!-- Generator: Adobe Illustrator 19.2.1, SVG Export Plug-In . SVG Version: 6.00 Build 0)  -->
<svg version="1.1" id="Слой_1" xmlns="http://www.w3.org/2000/svg" xmlns:xlink="http://www.w3.org/1999/xlink" x="0px" y="0px"
	 viewBox="0 0 120 100" style="enable-background:new 0 0 120 100;" xml:space="preserve">
<style type="text/css">
	.st0{fill:#FFFFFF;}
	.st1{clip-path:url(#SVGID_2_);}
	.st2{fill:#FFC416;}
	.st3{fill:#F86E3C;}
	.st4{fill:#FFD045;}
	.st5{opacity:0.6;fill:#FFD045;enable-background:new    ;}
	.st6{fill:#96A8B4;}
	.st7{fill:#DE852B;}
	.st8{clip-path:url(#SVGID_4_);}
	.st9{fill:none;stroke:#FFFFFF;stroke-width:5;stroke-miterlimit:10;}
	.st10{fill:#FFC008;}
	.st11{clip-path:url(#SVGID_6_);}
</style>
<title>semantics</title>
<path class="st0" d="M116,92.5c0.1,2.3-1.8,4.3-4.1,4.3H8.1c-2.2,0.1-4-1.9-4.1-4.3V9.1C3.9,6.9,5.7,5.1,7.9,5h104
	c2.3,0,4.1,1.7,4.1,3.9c0,0.1,0,0.1,0,0.2L116,92.5L116,92.5z"/>
<g>
	<defs>
		<path id="SVGID_1_" d="M116,92.5c0.1,2.3-1.8,4.3-4.1,4.3H8.1c-2.2,0.1-4-1.9-4.1-4.3V9.1C3.9,6.9,5.7,5.1,7.9,5h104
			c2.3,0,4.1,1.7,4.1,3.9c0,0.1,0,0.1,0,0.2L116,92.5L116,92.5z"/>
	</defs>
	<clipPath id="SVGID_2_">
		<use xlink:href="#SVGID_1_"  style="overflow:visible;"/>
	</clipPath>
	<g class="st1">
		<rect x="4" y="5" class="st2" width="112" height="3.8"/>
		<rect x="4" y="8.8" class="st3" width="112" height="7"/>
		<rect x="4" y="15.8" class="st4" width="112" height="6.5"/>
		<path class="st4" d="M49.1,12.4c0-1.5-0.7-3.1-2-3.1H23.2c-1.3,0-2.5,1.6-2.5,3.1v2.5c0,1.5,1.2,2,2.5,2h23.9c1.3,0,2-0.4,2-2
			L49.1,12.4L49.1,12.4z"/>
		<path class="st5" d="M74.8,12.4c0-1.5-1-3.1-2.3-3.1h-24c-1.3,0-2.2,1.6-2.2,3.1v2.5c0,1.5,0.9,2,2.2,2h24c1.3,0,2.3-0.4,2.3-2
			L74.8,12.4L74.8,12.4L74.8,12.4z"/>
		<ellipse class="st0" cx="8.3" cy="12.4" rx="1.4" ry="1.5"/>
		<ellipse class="st0" cx="11.9" cy="12.4" rx="1.4" ry="1.5"/>
		<ellipse class="st0" cx="15.6" cy="12.4" rx="1.4" ry="1.5"/>
		<path class="st3" d="M10.9,18.5H8.5L8.9,18c0.2-0.2,0.2-0.5,0-0.8c0,0-0.1-0.1-0.1-0.1C8.6,17,8.3,17,8.1,17.2l0,0l-1.2,1.6
			c-0.1,0.1-0.1,0.3-0.1,0.4c0,0.1,0,0.3,0.1,0.4L8,21.3c0.1,0.2,0.3,0.2,0.5,0.2c0.1,0,0.2,0,0.4-0.1c0.3-0.3,0.3-0.7,0.1-1
			l-0.5-0.9H11c0.2,0.1,0.5,0,0.6-0.3c0.1-0.3,0-0.6-0.3-0.7C11.2,18.4,11.1,18.4,10.9,18.5z"/>
		<path class="st3" d="M17.9,19l-1.1-1.6c-0.2-0.2-0.5-0.3-0.8-0.1c-0.2,0.1-0.3,0.4-0.2,0.7c0,0,0,0.1,0,0.1l0,0l0.4,0.5H14
			c-0.3,0-0.5,0.2-0.5,0.5c0,0.3,0.2,0.6,0.4,0.6c0,0,0.1,0,0.1,0h2.4l-0.5,0.8c-0.2,0.3-0.2,0.7,0.1,0.9c0.1,0.1,0.2,0.2,0.3,0.2
			c0.2,0,0.3-0.1,0.5-0.2l1.1-1.5C18.1,19.6,18.1,19.2,17.9,19z"/>
		<rect x="20.7" y="16.9" class="st0" width="92.5" height="4.3"/>
		<rect x="1.8" y="91.9" class="st2" width="117.6" height="7.6"/>
	</g>
</g>
<polygon class="st6" points="17.8,66.6 8.7,57 17.8,47.4 20.3,50 13.6,57 20.3,64 "/>
<polygon class="st6" points="102.2,66.6 99.7,64 106.4,57 99.7,50 102.2,47.4 111.3,57 "/>
<rect x="26.3" y="29.8" class="st6" width="66.9" height="3.2"/>
<rect x="26.3" y="59.5" class="st6" width="35.1" height="3.8"/>
<rect x="26.3" y="37.9" class="st6" width="35.1" height="1.6"/>
<rect x="26.3" y="40.6" class="st6" width="35.1" height="1.6"/>
<rect x="26.3" y="43.3" class="st6" width="31.2" height="1.6"/>
<rect x="26.3" y="46" class="st6" width="35.1" height="1.1"/>
<rect x="26.3" y="48.2" class="st6" width="35.1" height="1.6"/>
<rect x="26.3" y="50.9" class="st6" width="35.1" height="1.6"/>
<rect x="26.3" y="53.6" class="st6" width="18.9" height="1.6"/>
<rect x="26.3" y="68.2" class="st6" width="35.1" height="1.6"/>
<rect x="26.3" y="70.9" class="st6" width="35.1" height="2.2"/>
<rect x="26.3" y="73.6" class="st6" width="33.4" height="2.2"/>
<rect x="26.3" y="76.3" class="st6" width="35.1" height="2.2"/>
<rect x="26.3" y="79" class="st6" width="32.3" height="1.6"/>
<rect x="26.3" y="81.7" class="st6" width="35.1" height="1.1"/>
<rect x="26.3" y="84.4" class="st6" width="24" height="1.6"/>
<rect id="_Обтравочный_контур_3" x="67.5" y="37.9" class="st7" width="25.6" height="17.3"/>
<g>
	<defs>
		<rect id="SVGID_3_" x="67.5" y="37.9" width="25.6" height="17.3"/>
	</defs>
	<clipPath id="SVGID_4_">
		<use xlink:href="#SVGID_3_"  style="overflow:visible;"/>
	</clipPath>
	<g class="st8">
		<line class="st9" x1="65.7" y1="35.7" x2="94.4" y2="57.5"/>
		<line class="st9" x1="94.8" y1="36.3" x2="65.3" y2="56.9"/>
	</g>
</g>
<rect id="_Обтравочный_контур_4" x="67.5" y="67.6" class="st10" width="25.6" height="18.4"/>
<g>
	<defs>
		<rect id="SVGID_5_" x="67.5" y="67.6" width="25.6" height="18.4"/>
	</defs>
	<clipPath id="SVGID_6_">
		<use xlink:href="#SVGID_5_"  style="overflow:visible;"/>
	</clipPath>
	<g class="st11">
		<line class="st9" x1="65.7" y1="65.9" x2="94.4" y2="87.6"/>
		<line class="st9" x1="94.8" y1="66.5" x2="65.3" y2="87"/>
	</g>
</g>
</svg>
