<svg id="Capa_1" data-name="Capa 1" xmlns="http://www.w3.org/2000/svg" viewBox="0 0 100 67.78"><title>webmoney</title><path d="M97.49,0H2.64A2.63,2.63,0,0,0,.06,2.74v62.4a2.63,2.63,0,0,0,2.57,2.69H97.49a2.63,2.63,0,0,0,2.57-2.69V2.74A2.63,2.63,0,0,0,97.49,0Zm-5,30.21-1.38,1.3-1.24-1.45,1.38-1.3ZM85.35,29l-1.87-2.17,2.08-2L87.43,27Zm2.12,0.24,1.87,2.17-2.08,2L85.4,31.19Zm-3.8-.72-2.77,2.6-2.49-2.89,2.77-2.6Zm-0.51,2,2.49,2.89-2.77,2.6-2.49-2.89Zm2,5,2.49,2.89-2.77,2.61-2.49-2.89Zm2,0.21,2.08-2L91.12,36l-2.08,2ZM90.69,26l-1.38,1.3-1.24-1.45,1.38-1.3ZM14.56,38.76H13.13l-1.8-6.92H11.23L9.48,38.76H8L5.9,28.93H7.38l1.49,7.34H9l1.72-7.34h1.18l1.84,7.34h0.09l1.35-7.34h1.55Zm8.23-3.2H18.47c0,1.66.65,2.4,2,2.4a3.94,3.94,0,0,0,2.11-.72v1.05a4.54,4.54,0,0,1-2.35.64c-2.23,0-3.14-1.44-3.14-3.64s1-3.63,3-3.63c1.66,0,2.68,1.12,2.68,3.39v0.51h0Zm3.79,3.37A6,6,0,0,1,24,38.25V28.56l1.38-.35v4a3.87,3.87,0,0,1,1.79-.51c1.64,0,2.53,1.19,2.53,3.41C29.71,37.67,28.51,38.93,26.59,38.93Zm13.71-.17H38.86V31.63H38.74L36,38.76H35.19l-2.71-7H32.36v7H31.17V28.93h1.6l3,7.76h0.07l2.84-7.76H40.3v9.84h0Zm4.49,0.17c-1.82,0-3-1.26-3-3.64s1.27-3.63,3-3.63,3,1.21,3,3.63S46.6,38.93,44.78,38.93Zm9.86-.17H53.26V34.06a1.05,1.05,0,0,0-1.2-1.29,3.54,3.54,0,0,0-1.62.5v5.49H49.07V32.68a6.58,6.58,0,0,1,3.38-1c1.59,0,2.19.65,2.19,2.08v5h0Zm6.93-3.2H57.24c0,1.66.65,2.4,2,2.4a3.93,3.93,0,0,0,2.11-.72v1.05a4.54,4.54,0,0,1-2.35.64c-2.23,0-3.14-1.44-3.14-3.64s1-3.63,3-3.63c1.66,0,2.68,1.12,2.68,3.39v0.51h0Zm4.18,3.28c-0.66,1.91-1.47,2.91-3,2.91V40.61c0.9,0,1.46-.75,1.78-1.78L62,31.89h1.46L65.14,37h0.08l1.51-5.11h1.42Zm22.5,5.68a11.15,11.15,0,0,1-5.73,1.59A11.93,11.93,0,0,1,70.88,33.94c0-6.7,5.22-12.16,11.63-12.16A11.15,11.15,0,0,1,87.61,23q0.36,0.18.72,0.4l-1.07,1-1.61-1.74L82.94,25.2l-1.61-1.84-5.06,4.77,3.24,3.74L78.24,33l3.19,3.74-1.27,1.17,4.56,5.31,2.71-2.61,2.34,2.8A12.59,12.59,0,0,1,88.24,44.51Zm2.62-2.19L89,40.15l2.08-2,1.87,2.17Zm2-6.47L91.6,34.41,93,33.11l1.24,1.45Zm-64.53-.78c0,2.25-.74,2.89-1.73,2.89a3,3,0,0,1-1.22-.22V33.2a2.69,2.69,0,0,1,1.44-.46C27.7,32.74,28.31,33.31,28.31,35.07Zm-6.78-.44h-3c0.15-1.39.77-2,1.58-2S21.47,33.17,21.53,34.63Zm38.77,0h-3c0.15-1.39.77-2,1.58-2S60.24,33.17,60.3,34.63Zm-13.89.66c0,1.9-.69,2.66-1.63,2.66s-1.63-.76-1.63-2.66,0.76-2.66,1.63-2.66S46.41,33.42,46.41,35.29Z" style="fill:#006df0"/></svg>