<?xml version="1.0" encoding="utf-8"?>
<!-- Generator: Adobe Illustrator 19.2.1, SVG Export Plug-In . SVG Version: 6.00 Build 0)  -->
<svg version="1.1" id="Слой_1" xmlns="http://www.w3.org/2000/svg" xmlns:xlink="http://www.w3.org/1999/xlink" x="0px" y="0px"
	 viewBox="0 0 120 100" style="enable-background:new 0 0 120 100;" xml:space="preserve">
<style type="text/css">
	.st0{fill:#005A9C;}
</style>
<title>wwwc</title>
<path class="st0" d="M30.9,24l9.4,34.4L49.7,24h25.4v3.4l-9.6,17.8c3.1,1,5.9,3.2,7.6,6.4c1.8,3.2,2.7,7,2.6,10.8
	c0.1,4.7-1.2,9.3-3.8,12.9c-4.4,6-12.2,7-17.7,2.1c-2.3-2.2-4-5.1-5-8.4l5.3-2.4c0.7,1.9,1.7,3.7,3.1,5c1.3,1.2,2.8,1.9,4.5,1.9
	c1.8,0,3.3-1.1,4.6-3.3c1.3-2.4,1.9-5.1,1.9-7.9c0-3.4-0.7-6-2-7.9c-1.6-2.2-4-3.3-7.3-3.3h-2.6v-3.3L65.7,31H54.8l-0.6,1.1
	L40.9,80.6h-0.7l-9.7-35.1l-9.7,35.1h-0.6L4.7,24h6.8l9.4,34.4l6.3-23.2L24.1,24H30.9z"/>
<path d="M110.3,24c-1.3,0-2.5,0.5-3.4,1.5c-0.9,1-1.5,2.4-1.5,3.8c0,1.4,0.5,2.8,1.5,3.7c0.9,1,2.2,1.6,3.5,1.6
	c1.3,0,2.6-0.6,3.5-1.6c0.9-1,1.5-2.3,1.5-3.8c0-1.4-0.5-2.8-1.5-3.8C112.9,24.5,111.6,24,110.3,24L110.3,24L110.3,24z M114.6,29.4
	c0,1.2-0.5,2.4-1.2,3.2c-0.8,0.9-1.9,1.4-3.1,1.4c-1.1,0-2.2-0.5-3-1.4c-0.8-0.8-1.2-2-1.3-3.2c0-1.3,0.5-2.5,1.3-3.4
	c0.8-0.9,1.9-1.3,3-1.3C112.6,24.6,114.5,26.6,114.6,29.4C114.6,29.3,114.6,29.3,114.6,29.4L114.6,29.4L114.6,29.4z M110.5,26.2
	h-2.1v6.1h1.1v-2.6h1l1.1,2.6h1.2l-1.2-2.8c0.8-0.1,1.3-0.8,1.3-1.7C112.8,26.7,112,26.1,110.5,26.2L110.5,26.2L110.5,26.2z
	 M110.3,26.9c1,0,1.5,0.3,1.5,1s-0.4,1-1.4,1h-0.9v-2L110.3,26.9L110.3,26.9z"/>
<path d="M102,23.7l1.1,7.2L99.3,39c-1-2.1-2.3-3.9-4-5.3c-2.1-1.6-3.5-1.9-5.6-1.5c-2.7,0.6-5.8,4.1-7.2,8.5
	c-1.6,5.2-1.7,7.8-1.7,10.1c-0.1,2,0.1,4,0.5,5.9c-1.6-3.6-2.4-7.6-2.3-11.6c-0.1-4.8,0.9-9.6,2.8-13.9c1.8-3.9,4.6-6.2,7-6.5
	c2.2-0.1,4.4,0.8,6.1,2.5c1.5,1.4,3.3,4.8,3.3,4.8L102,23.7L102,23.7L102,23.7z"/>
<path d="M102.5,64.6c-0.8,1.6-1.7,3.2-2.8,4.6c-1.1,1.3-3,3.5-5.4,4.7c-1.8,1-3.9,1.4-6,1.1c-1.9-0.3-3.7-1.1-5.3-2.3
	c-1.4-1.2-2.7-2.6-3.8-4.1c-1.1-1.7-2.8-5-2.8-5s1,3.4,1.6,4.8c0.8,2,1.8,3.8,2.9,5.5c1.4,2,4.1,5.5,8.3,6.3
	c2.7,0.5,5.4-0.1,7.7-1.7c1.1-0.9,2.2-1.8,3.1-2.9c0.9-1,1.7-2.2,2.4-3.4c0.4-0.6,1-1.9,1-1.9L102.5,64.6L102.5,64.6L102.5,64.6
	L102.5,64.6z"/>
</svg>
