<?xml version="1.0" encoding="utf-8"?>
<!-- Generator: Adobe Illustrator 19.2.1, SVG Export Plug-In . SVG Version: 6.00 Build 0)  -->
<svg version="1.1" id="Слой_1" xmlns="http://www.w3.org/2000/svg" xmlns:xlink="http://www.w3.org/1999/xlink" x="0px" y="0px"
	 viewBox="0 0 100 75.1" style="enable-background:new 0 0 100 75.1;" xml:space="preserve">
<style type="text/css">
	.st0{fill:#FF0000;}
	.st1{fill:#F9C637;}
	.st2{fill:#C8A332;}
	.st3{fill:#000106;}
</style>
<title>yandex</title>
<path class="st0" d="M16.6,35.5h-5.3c-5.2,0-9.6,4-9.6,11.7c0,4.6,2.2,8,5.9,9.7L0.5,69.7c-0.2,0.2-0.2,0.4,0,0.6
	c0.1,0.1,0.2,0.1,0.4,0.1h3.3c0.2,0,0.5-0.1,0.5-0.4l6.5-12.7h2.3v12.7c0,0.2,0.2,0.3,0.4,0.4h2.9c0.2,0,0.3-0.1,0.4-0.3
	c0,0,0,0,0-0.1V35.9C17.1,35.7,16.9,35.5,16.6,35.5C16.6,35.5,16.6,35.5,16.6,35.5z M13.5,54.5h-2c-3.1,0-6-2.2-6-7.8
	c0-5.8,2.8-8.2,5.7-8.2h2.3V54.5z"/>
<path d="M34,47.1h-2.9c-0.2,0-0.3,0.1-0.4,0.3c0,0,0,0,0,0.1v8.9h-5.3v-8.9c0-0.2-0.1-0.3-0.2-0.4c0,0-0.1,0-0.1,0h-2.9
	c-0.2,0-0.3,0.1-0.4,0.3c0,0,0,0,0,0.1v22.7c0,0.2,0.1,0.3,0.2,0.4c0,0,0.1,0,0.1,0h3c0.2,0,0.3-0.2,0.4-0.4V59.3h5.3v10.8
	c0,0.2,0.1,0.3,0.3,0.4c0,0,0,0,0.1,0h2.9c0.2,0,0.3-0.1,0.4-0.3c0,0,0,0,0-0.1V47.4C34.5,47.2,34.3,47.1,34,47.1z M100,69l-0.4-1.6
	c-0.1-0.2-0.1-0.2-0.3-0.2c-1.1,0.3-2.2,0.5-3.3,0.5c-3.5,0-5.2-3.4-5.2-8.8c0-4.8,1.4-9.4,3.9-9.4c0.6,0,1.4,0.2,2.7,1.3
	c0.1,0.1,0.2,0.2,0.4,0.2c0.2,0,0.4-0.2,0.4-0.4l1.3-2.1c0.1-0.1,0.2-0.3,0.2-0.4c0-0.2-0.2-0.4-0.4-0.4c-1.3-0.8-2.8-1.2-4.3-1.2
	c-4.4,0-7.7,5.2-7.7,13.4c0,7,3.2,11.1,7.9,11.1c1.7,0,3.4-0.6,4.9-1.5C100,69.3,100,69.2,100,69z M79.7,57.6l5.5-10.2
	c0.1-0.2,0.1-0.4-0.2-0.4h-2.8c-0.6-0.1-1.2,0.3-1.3,0.9l-4.1,8.6c-0.1,0.4-0.4,0.7-0.7,1V47.4c0-0.2-0.1-0.3-0.3-0.4c0,0,0,0,0,0
	h-2.9c-0.2,0-0.3,0.2-0.3,0.4c0,0,0,0,0,0v22.7c0,0.2,0.1,0.3,0.3,0.4c0,0,0,0,0,0h3.1c0.2,0,0.3-0.2,0.3-0.4c0,0,0,0,0,0V58.5
	c0.2,0.1,0.3,0.3,0.4,0.4l5.2,10.8c0.2,0.5,0.7,0.8,1.3,0.7h3c0.1,0,0.2-0.1,0.2-0.2c0,0,0-0.1,0-0.1L79.7,57.6z M53,67.5h-0.5
	c-0.7,0-0.9-0.3-0.9-0.8V47.4c0-0.3-0.1-0.4-0.3-0.4H42c-0.2,0-0.3,0.1-0.4,0.3c0,0,0,0,0,0.1v1.7c0,5.7-0.4,13-3.3,18.4h-1
	c-0.2,0-0.3,0.1-0.4,0.3c0,0,0,0,0,0.1v6.7c0,0.2,0.1,0.3,0.3,0.4c0,0,0,0,0.1,0h2.2c0.4,0,0.7-0.2,0.7-0.6c0,0,0-0.1,0-0.1v-3.9h10
	v4.2c0,0.2,0.2,0.3,0.4,0.4H53c0.3-0.1,0.6-0.4,0.5-0.7v-6.5C53.5,67.6,53.3,67.5,53,67.5z M48.1,67.5h-6.7c2.3-4,3.3-8.6,3.6-14.2
	c0.1-1.2,0.2-2.5,0.2-3.2h3L48.1,67.5L48.1,67.5z M62.6,46.5c-5,0-7.3,6.4-7.3,13.2c0,7,3.1,11.2,7.8,11.2c1.9,0,3.7-0.6,5.3-1.5
	c0.2-0.1,0.3-0.3,0.2-0.4c0,0,0,0,0,0l-0.4-1.6c0-0.2-0.2-0.3-0.4-0.3c-1.1,0.3-2.3,0.5-3.4,0.5c-3.6,0-5.2-3.1-5.2-7.2v-1.1
	c0,0,1.8,0.2,2.9,0.2h6.7v-2C68.9,50.4,66.2,46.5,62.6,46.5L62.6,46.5L62.6,46.5z M59.2,56.9c0-0.5,0-1,0.1-1.4
	c0.4-4,1.4-5.9,3.1-5.9c1.6,0,2.4,2.1,2.6,5.7c0.1,0.5,0.1,1.1,0.1,1.6H62L59.2,56.9z"/>
<g id="Page-1">
	<g id="mywallet">
		<g id="content-all-types-color-icons-1">
			<g id="new-p2p-copy-3">
				<g id="ym-horiz-radio-copy-3">
					<g id="ym-horiz-radio">
						<g id="v3.1.1.offline">
							<g id="ym-horiz-radio-2">
								<g id="ym_logo_20x20-copy">
									<g id="v.4.6-_exp_">
										<g id="ym_logo_20x20">
											<g id="yandex.dengi_product-icon_rgb">
												<g id="Group-3">
													<path id="Fill-1" class="st1" d="M39,13.5c4.6-3,19.2-13.2,19.9-13.2V17h10.5v25H36.7c-1.8,0.1-3.4-1.3-3.5-3.1V21
														C33.2,18.7,33.5,17.2,39,13.5L39,13.5L39,13.5z"/>
												</g>
												<path id="Fill-4" class="st2" d="M58.9,17v9.3L39.3,37.8l24.1-6.9V17h-5"/>
												<path id="Fill-5" class="st3" d="M49.5,16c1.3-1.3,3.2-1.8,4.2-1.1c1,0.7,0.8,2.4-0.5,3.8c-1.3,1.3-3.2,1.8-4.2,1.1
													C47.9,19.1,48.2,17.4,49.5,16"/>
											</g>
										</g>
									</g>
								</g>
							</g>
						</g>
					</g>
				</g>
			</g>
		</g>
	</g>
</g>
</svg>
